<svg width="289" height="42" viewBox="0 0 289 42" fill="none" xmlns="http://www.w3.org/2000/svg">
<path d="M111.569 0.0353394C110.866 0.0838203 110.256 0.153851 109.569 0.277744C109.348 0.315453 109.056 0.36932 108.921 0.385483C108.003 0.530926 105.766 1.22043 104.707 1.68908C101.001 3.33205 97.9371 5.90154 95.7219 9.2198C94.4684 11.1052 93.4041 13.4754 92.9502 15.3877C92.88 15.7001 92.7989 16.0395 92.7665 16.1418C92.6639 16.5189 92.5234 17.3754 92.3829 18.4312C92.3559 18.6359 92.3235 19.4008 92.3019 20.128C92.2262 23.2254 92.7665 26.0319 93.9714 28.8277C94.6359 30.3737 95.9596 32.5445 96.9051 33.6488C99.0825 36.186 101.103 37.7913 103.832 39.1434C104.55 39.4989 105.917 40.0645 106.247 40.1453C106.339 40.1668 106.436 40.1992 106.463 40.2207C106.511 40.253 106.787 40.3338 107.678 40.5762C108.246 40.7271 108.354 40.754 108.813 40.8402C109.759 41.0233 110.218 41.088 111.136 41.1634C113.098 41.3304 112.903 41.3304 115.161 41.1311C115.902 41.0664 117.339 40.8133 117.998 40.6355C118.16 40.587 118.452 40.5116 118.646 40.4685C118.97 40.3877 119.16 40.3284 119.43 40.2207C119.489 40.1992 119.694 40.1237 119.889 40.0591C120.921 39.709 122.504 38.9764 123.363 38.4538C123.563 38.3299 123.736 38.2276 123.747 38.2276C123.811 38.2276 125.313 37.1933 125.643 36.9294C126.524 36.2129 126.907 35.8682 127.615 35.1625C128.788 33.9882 129.641 32.9001 130.77 31.1224C131.089 30.6269 131.921 28.9354 132.154 28.3159C132.213 28.1543 132.289 27.9712 132.316 27.9119C132.586 27.3194 133.056 25.5902 133.294 24.3405C133.607 22.6598 133.693 20.225 133.504 18.2965C133.402 17.2784 132.872 14.8005 132.64 14.2834C132.613 14.2241 132.532 13.9925 132.461 13.7716C131.759 11.6546 130.284 9.07974 128.739 7.29133C127.788 6.19243 126.934 5.36825 125.832 4.47943C125.697 4.3717 125.54 4.24241 125.481 4.19393C125.265 4.00001 123.471 2.83646 122.969 2.56713C120.764 1.3551 118.554 0.617111 115.945 0.218491C114.686 0.0245667 112.854 -0.0508461 111.569 0.0353394ZM114.918 7.08663C115.637 7.19976 116.642 7.44755 117.134 7.6307C117.296 7.69534 117.539 7.78153 117.674 7.83001C119.214 8.36869 121.261 9.75847 122.558 11.1483C124.671 13.4161 125.913 16.1687 126.243 19.32C126.291 19.821 126.275 21.6417 126.216 22.1481C125.973 24.1519 125.47 25.7249 124.535 27.4002C123.925 28.4991 123.358 29.2694 122.488 30.1636C122.234 30.4222 122.018 30.6484 122.002 30.6753C121.926 30.7723 121.126 31.4456 120.753 31.7204C120.127 32.1782 119.651 32.4745 118.916 32.8516C117.009 33.832 115.097 34.2953 112.952 34.2953C110.953 34.2953 109.153 33.8912 107.381 33.0509C106.841 32.7923 106.047 32.3614 106.004 32.3075C105.987 32.286 105.879 32.2106 105.76 32.1405C105.642 32.0705 105.523 31.9897 105.49 31.9682C105.463 31.9412 105.269 31.7958 105.058 31.645C104.388 31.144 103.745 30.5461 103.091 29.8188C102.486 29.1401 102.465 29.1132 101.951 28.3482C101.346 27.4487 100.806 26.409 100.52 25.5956C100.471 25.4448 100.406 25.2778 100.385 25.2185C100.271 24.9276 100.163 24.5829 100.06 24.1412C99.9956 23.8718 99.9199 23.5971 99.8983 23.5217C99.7687 23.1554 99.6282 21.6633 99.6282 20.6344C99.6282 18.3235 100.125 16.2172 101.125 14.2888C101.325 13.8955 101.346 13.8578 101.73 13.2222C102.908 11.2775 104.923 9.43527 107.063 8.3633C108.554 7.61454 109.84 7.22669 111.569 7.01122C112.406 6.90887 114.011 6.94119 114.918 7.08663Z" fill="#FF4350"/>
<path d="M0.610526 1.0103C0.367396 1.05878 0.216115 1.17729 0.102655 1.40353C0 1.61362 0 1.97992 0 20.6235V39.6335L0.108058 39.849C0.172892 39.9675 0.297158 40.1129 0.39441 40.1668C0.5619 40.2691 0.686166 40.2745 3.70097 40.2745C6.82924 40.2745 6.83464 40.2745 7.19124 40.1506C7.60185 40.0052 7.8828 39.7951 8.18536 39.4072C8.52034 38.9817 9.77921 37.4034 9.87647 37.2848C9.9305 37.2256 10.0656 37.0586 10.1844 36.9078C10.3033 36.7623 10.4438 36.59 10.4924 36.5307C10.541 36.4714 10.93 35.9866 11.3515 35.4533C12.9237 33.4818 14.4527 31.5749 14.5067 31.5156C14.5338 31.4779 14.658 31.3271 14.7769 31.1709C14.8957 31.0146 15.0794 30.783 15.1821 30.6591C15.2848 30.5298 15.4306 30.3467 15.5063 30.2497C15.5819 30.1528 15.717 29.9858 15.8034 29.878C15.8953 29.7649 16.0412 29.5871 16.1276 29.474C16.2194 29.3663 16.4248 29.1077 16.5868 28.9084C16.7489 28.7091 16.9434 28.4667 17.0191 28.3697C17.0947 28.2728 17.2406 28.0896 17.3432 27.9657C17.4459 27.8418 17.5972 27.6533 17.6782 27.5563C17.7593 27.454 18.0726 27.0554 18.3806 26.6729C19.9907 24.6582 21.1955 23.1607 21.2657 23.0691C21.4116 22.8968 22.6003 21.4154 22.9082 21.0168C23.0703 20.8121 23.2432 20.602 23.2864 20.5535C23.3296 20.505 23.4647 20.3381 23.5836 20.1818C23.7024 20.0256 23.8267 19.8748 23.8537 19.8371C23.8861 19.8048 24.032 19.627 24.1779 19.4385C24.4967 19.0345 24.9883 18.4257 25.1126 18.2695C25.1666 18.2103 25.3395 17.9894 25.5016 17.7847C25.6637 17.58 25.8366 17.3592 25.8906 17.2999C26.0689 17.0844 26.3444 16.7451 26.5011 16.5458C26.7389 16.2387 30.9909 10.9274 31.207 10.6634C31.3097 10.5341 31.7473 9.99006 32.1796 9.45138C32.6118 8.90731 33.0386 8.37941 33.1197 8.27706C33.8545 7.35592 34.9404 6.00923 35.0539 5.8584C35.2754 5.58367 36.1723 4.46322 36.4424 4.12924C37.5014 2.81487 38.4685 1.57591 38.4955 1.49511C38.5387 1.36044 38.4415 1.12881 38.3118 1.05878C38.1768 0.988754 30.2777 0.983368 29.9698 1.05339C29.6456 1.12881 29.1918 1.43586 28.9432 1.74829C28.6947 2.06611 26.5011 4.80259 26.2688 5.09348C25.9716 5.45978 25.7934 5.68063 25.6367 5.87994C25.5502 5.99846 25.3935 6.18699 25.2963 6.3055C25.091 6.55868 25.0856 6.56406 24.6912 7.06504C24.5291 7.27512 24.3832 7.45288 24.367 7.46904C24.3508 7.4852 24.2049 7.66297 24.0428 7.87305C23.8807 8.07775 23.7078 8.29861 23.6538 8.35786C23.5512 8.48176 23.2 8.9127 23.1081 9.03121C23.0703 9.0743 22.9082 9.28439 22.7461 9.48908C22.584 9.69917 22.4382 9.87693 22.422 9.89309C22.4057 9.90925 21.9951 10.4156 21.5089 11.0243C21.028 11.633 20.5904 12.1771 20.5418 12.2363C20.4877 12.2956 20.3364 12.4895 20.1906 12.6673C20.0501 12.845 19.7529 13.2221 19.526 13.5022C19.2991 13.7823 18.8723 14.3156 18.5751 14.6873C18.2833 15.059 17.8835 15.5546 17.689 15.7916C17.4999 16.0286 17.0623 16.5727 16.7165 17.0036C16.3761 17.4346 16.052 17.8332 16.0033 17.8925C15.9547 17.9517 15.7764 18.1726 15.6143 18.3773C15.4522 18.5873 15.2956 18.7813 15.2631 18.8136C15.2361 18.8459 15.0146 19.1206 14.7769 19.4277C14.5392 19.7293 14.2744 20.0687 14.1826 20.1818C13.9719 20.435 13.8422 20.5966 12.8859 21.7979C12.4428 22.3473 12.0214 22.8698 11.9458 22.9614C11.8701 23.053 11.6864 23.2846 11.5352 23.4732C11.3893 23.6617 11.2326 23.8556 11.2002 23.8987C11.1624 23.9418 10.9624 24.195 10.7517 24.4643C10.541 24.7283 10.2979 25.0353 10.2168 25.1377C9.82244 25.6279 9.08765 26.5436 8.94177 26.7268C8.85532 26.8453 8.70944 27.023 8.6176 27.1308C8.53115 27.2439 8.38527 27.4217 8.29342 27.5348C8.20698 27.6425 8.0611 27.8257 7.96925 27.9388C7.8828 28.0465 7.73693 28.2297 7.65048 28.3374C7.56403 28.4451 7.47218 28.5259 7.44517 28.5206C7.42356 28.5098 7.40195 22.6544 7.40195 15.0536C7.40195 2.90644 7.39654 1.5813 7.3155 1.38737C7.15882 0.994141 7.25607 1.00491 3.81443 0.988754C2.13414 0.983368 0.691569 0.994141 0.610526 1.0103Z" fill="#FF4350"/>
<path d="M52.3103 1.03723C51.7592 1.10187 51.5377 1.1719 51.0569 1.40892C50.3707 1.75367 50.0087 2.11997 48.6958 3.79526C48.6418 3.86529 48.5121 4.02689 48.4094 4.15617C48.3068 4.28007 48.1231 4.5117 48.0042 4.66792C47.8854 4.82413 47.7611 4.97496 47.7341 5.01267C47.7017 5.04499 47.545 5.23891 47.3829 5.449C47.2208 5.6537 47.0749 5.83685 47.0587 5.85301C47.0263 5.88533 46.6805 6.31627 45.0326 8.38479C44.3789 9.1982 43.8332 9.87693 43.817 9.89309C43.8008 9.90925 43.6549 10.087 43.4928 10.2971C43.3307 10.5018 43.1578 10.7227 43.1038 10.7819C43.0552 10.8412 42.4717 11.5684 41.8125 12.3979C41.148 13.2275 40.5915 13.917 40.5753 13.9332C40.5591 13.9493 40.4132 14.1271 40.2511 14.3372C40.089 14.5419 39.9161 14.7627 39.8621 14.822C39.8135 14.8812 39.23 15.6085 38.5654 16.438C37.9062 17.2676 37.3227 17.9948 37.2687 18.0541C37.1553 18.1941 33.5191 22.7352 33.3084 23.0099C33.1409 23.2254 32.8492 23.5809 32.6979 23.764C32.6438 23.8233 32.4331 24.0872 32.2278 24.3566C31.9199 24.7552 31.2013 25.6494 30.3206 26.7483C29.8992 27.2654 29.7911 27.4055 29.3913 27.9119C29.2292 28.1219 29.0833 28.2997 29.0671 28.3159C29.0455 28.332 28.7808 28.6552 28.4782 29.0431C27.9109 29.7595 27.7002 30.0181 27.4193 30.3628C27.3328 30.4706 27.1869 30.6537 27.0951 30.7668C27.0086 30.8854 26.8628 31.0631 26.7709 31.1709C26.6845 31.284 26.544 31.451 26.463 31.5533C26.209 31.8819 25.123 33.234 24.8097 33.6165C24.6044 33.8696 24.599 33.8804 24.2045 34.376C24.0425 34.5861 23.8966 34.7638 23.8804 34.78C23.8642 34.7962 23.4535 35.3025 22.9673 35.9112C22.4864 36.5199 22.0488 37.064 22.0002 37.1232C21.9461 37.1825 21.7949 37.3764 21.649 37.5542C21.5085 37.7319 21.0655 38.2868 20.6657 38.7878C19.8714 39.7843 19.8228 39.8974 20.0713 40.1398L20.201 40.2745H24.2208C28.1162 40.2745 28.2513 40.2691 28.5593 40.1668C28.9915 40.0159 29.24 39.8328 29.5696 39.418C29.7209 39.2241 29.8614 39.0517 29.8776 39.0355C29.8938 39.0194 30.0234 38.8632 30.1639 38.6854C30.4287 38.3514 32.3629 35.9274 33.7514 34.1874C34.1945 33.638 34.6051 33.1316 34.6753 33.0562C34.7402 32.9808 34.7942 32.9054 34.7942 32.8838C34.7942 32.8623 34.8374 32.803 34.8914 32.7492C34.9455 32.6953 35.1832 32.4098 35.4155 32.1135C35.6532 31.8173 35.8586 31.5641 35.8748 31.5479C35.9126 31.5156 36.8041 30.3898 37.0094 30.1204C37.1661 29.9103 38.4249 28.3536 38.4681 28.3159C38.4844 28.2997 38.5816 28.1812 38.6843 28.0465C38.7869 27.9119 38.9436 27.7179 39.0355 27.6102C39.1219 27.5025 39.3164 27.2601 39.4677 27.0715C39.6136 26.883 39.781 26.6783 39.8351 26.619C39.9539 26.4897 39.8567 26.3982 40.7644 27.5402C41.0885 27.9496 41.3695 28.2997 41.3857 28.3159C41.4019 28.332 41.537 28.499 41.6829 28.6876C41.8341 28.8761 42.0178 29.1077 42.0935 29.1993C42.1691 29.2909 42.5905 29.8134 43.0282 30.3628C43.4658 30.9123 43.8656 31.4079 43.9143 31.4671C43.9683 31.5264 44.1196 31.7203 44.26 31.8981C44.4059 32.0758 44.7949 32.5606 45.1245 32.9808C45.4595 33.3956 45.7945 33.8158 45.8701 33.9127C45.9457 34.0097 46.0322 34.1174 46.0592 34.1497C46.0916 34.1874 46.2105 34.3329 46.3293 34.4837C46.4482 34.6292 46.5833 34.8015 46.6319 34.8608C46.6859 34.9201 46.9831 35.2971 47.3019 35.6957C47.6206 36.0944 47.9502 36.5091 48.0312 36.6115C48.1123 36.7138 48.4311 37.1125 48.739 37.5003C49.047 37.8828 49.3117 38.2114 49.3279 38.2275C49.3441 38.2437 49.49 38.4215 49.6521 38.6315C50.6408 39.8867 50.7327 39.9728 51.3 40.1614C51.608 40.2691 51.77 40.2745 54.72 40.2745C58.059 40.2745 58.0806 40.2745 58.2643 39.9944C58.3453 39.8759 58.3507 38.0821 58.3507 20.6343C58.3507 2.02301 58.3507 1.40353 58.2535 1.27425C58.0536 1.00491 58.0428 1.00491 55.3251 0.98875C53.7475 0.983364 52.6021 0.999523 52.3103 1.03723ZM51.0569 20.6128C51.0569 27.5348 51.0406 29.2855 50.9866 29.2855C50.9542 29.2855 50.8353 29.1777 50.7327 29.0431C50.63 28.9084 50.4085 28.6337 50.2464 28.429C50.0843 28.2297 49.879 27.9711 49.7872 27.858C49.4144 27.384 48.8795 26.7268 48.8417 26.6998C48.8201 26.6837 48.7822 26.6352 48.7552 26.5867C48.7282 26.5382 48.631 26.4036 48.5337 26.2904C48.35 26.0696 48.2257 25.9134 46.8102 24.1411C46.3401 23.5486 45.9133 23.0153 45.8647 22.956C45.8161 22.8968 45.4541 22.4497 45.0651 21.9595C44.6761 21.4693 44.287 20.9791 44.1952 20.8713C44.0277 20.6666 43.9899 20.5374 44.0871 20.4781C44.1196 20.4619 44.4383 20.0741 44.7949 19.627C45.1515 19.1745 45.5189 18.722 45.5999 18.6197C45.6864 18.5173 46.1078 17.984 46.5401 17.4346C46.9777 16.8851 47.4964 16.2333 47.6963 15.9855C48.1663 15.4038 48.2582 15.2906 48.8849 14.5042C49.1118 14.2241 49.128 14.2025 49.49 13.7446C49.6521 13.5345 49.798 13.3568 49.8142 13.3406C49.8628 13.2921 50.657 12.2956 50.7867 12.1124C50.8569 12.0209 50.9488 11.9401 50.9866 11.9401C51.0461 11.9401 51.0569 13.4915 51.0569 20.6128Z" fill="#FF4350"/>
<path d="M67.9612 1.01568C67.81 1.04261 67.6695 1.11264 67.5614 1.22038L67.3993 1.38198L67.3831 20.532C67.3723 41.6212 67.3453 39.9459 67.7073 40.1668C67.8856 40.2745 67.9558 40.2745 76.9138 40.2745C85.8394 40.2745 85.9474 40.2745 86.2608 40.1668C86.4337 40.1075 86.6714 39.989 86.7849 39.9136C86.9578 39.7951 87.8222 38.7824 88.3895 38.039C88.6489 37.705 88.8488 37.4464 88.8758 37.4195C88.892 37.4034 89.0379 37.2202 89.2 37.0155C89.362 36.8054 89.5079 36.6277 89.5241 36.6115C89.5403 36.5953 89.6862 36.4122 89.8483 36.2075C90.0104 35.9974 90.1563 35.8196 90.1725 35.8035C90.1887 35.7873 90.3346 35.6042 90.4967 35.3995C90.6587 35.1894 90.8046 35.0116 90.8208 34.9955C90.837 34.9793 90.9721 34.8177 91.118 34.6292C91.2693 34.4406 91.453 34.209 91.534 34.1174C91.7015 33.9235 91.7339 33.6326 91.5988 33.4602C91.5178 33.3525 91.4476 33.3525 83.1217 33.3363L74.7202 33.3256L74.7094 17.3592L74.6932 1.38736L74.5365 1.22576C74.4501 1.13419 74.3042 1.048 74.2124 1.03184C73.953 0.983356 68.2206 0.972584 67.9612 1.01568Z" fill="#FF4350"/>
<path d="M140.845 1.02105C140.747 1.04259 140.601 1.13956 140.52 1.23652L140.369 1.40351V20.6397C140.375 38.9817 140.375 39.8759 140.466 39.9836C140.715 40.2799 140.645 40.2745 144.032 40.2745H147.161L147.344 40.1506C147.442 40.086 147.555 39.9675 147.593 39.8974C147.647 39.7897 147.663 36.4768 147.663 23.8879C147.663 14.4126 147.685 8.00231 147.712 7.98615C147.798 7.9269 164.655 7.94844 164.671 8.00231C164.688 8.04541 164.201 8.68105 163.666 9.32746C163.612 9.38671 163.439 9.60757 163.277 9.81227C163.115 10.017 162.942 10.2378 162.888 10.2971C162.84 10.3563 162.402 10.9004 161.921 11.5091C161.435 12.1178 161.024 12.6242 161.008 12.6403C160.992 12.6565 160.857 12.8235 160.711 13.0066C160.56 13.1952 160.306 13.5184 160.144 13.7177C159.982 13.917 159.679 14.2995 159.468 14.558C159.263 14.822 159.079 15.0482 159.063 15.0644C159.047 15.0805 158.782 15.4037 158.474 15.7916C157.847 16.5781 157.648 16.8259 157.415 17.1114C157.329 17.2191 157.183 17.4022 157.091 17.5207C156.821 17.8655 156.037 18.8459 155.848 19.0775C155.746 19.196 155.265 19.7994 154.768 20.4242C154.271 21.0437 153.828 21.6039 153.779 21.6632C153.196 22.3527 153.044 22.6813 153.169 22.9937C153.217 23.1176 153.698 23.764 154.103 24.2488C154.174 24.3404 155.47 25.9511 155.973 26.5867C156.054 26.6837 156.637 27.4109 157.269 28.2027C157.907 28.9892 158.49 29.7164 158.566 29.8188C158.647 29.9211 158.788 30.0935 158.874 30.2012C159.106 30.4867 159.306 30.7345 159.933 31.521C160.241 31.9034 160.506 32.232 160.522 32.2482C160.538 32.2644 160.684 32.4421 160.846 32.6522C161.251 33.164 161.397 33.3525 161.775 33.8158C161.856 33.9181 162.445 34.6507 163.083 35.4533C163.726 36.2506 164.401 37.0963 164.585 37.3279C165.017 37.8612 165.266 38.179 165.347 38.2814C165.795 38.8578 166.492 39.6873 166.616 39.8005C166.708 39.8813 166.859 39.9836 166.951 40.0321C167.421 40.2745 167.416 40.2745 171.636 40.2745H175.645L175.753 40.1344C175.98 39.8489 175.898 39.682 175.034 38.6315C174.91 38.4861 174.796 38.3406 174.775 38.3083C174.753 38.2814 174.656 38.1575 174.553 38.039C174.456 37.9205 174.326 37.7589 174.267 37.6835C174.186 37.5703 173.208 36.3475 172.268 35.184C172.198 35.0924 171.965 34.8015 171.754 34.5376C171.549 34.2682 171.22 33.8588 171.025 33.6218C170.836 33.3848 170.555 33.0347 170.404 32.8407C170.252 32.6468 170.074 32.4314 170.009 32.3559C169.95 32.2805 169.761 32.0489 169.599 31.8442C169.437 31.6341 169.291 31.4563 169.275 31.4402C169.242 31.4079 168.794 30.8476 167.573 29.3124C167.103 28.7199 166.703 28.2243 166.681 28.2081C166.665 28.192 166.524 28.0142 166.362 27.8095C166.206 27.6048 166.033 27.3893 165.979 27.3247C165.325 26.5436 162.359 22.8052 162.359 22.7621C162.359 22.7082 162.57 22.4119 162.775 22.1749C162.915 22.0079 163.272 21.5662 164.061 20.5804C164.509 20.0202 164.909 19.5139 164.963 19.4546C165.044 19.3576 165.298 19.0398 165.736 18.4796C165.828 18.3665 165.973 18.1887 166.06 18.081C166.152 17.9679 166.298 17.7901 166.384 17.677C166.476 17.5585 166.627 17.3699 166.724 17.2514C167 16.9174 166.995 16.9174 167.594 16.1687C167.897 15.7808 168.221 15.3822 168.307 15.2799C168.453 15.0967 168.637 14.8758 168.977 14.4449C169.069 14.3372 169.215 14.154 169.302 14.0409C169.393 13.9332 169.534 13.75 169.626 13.6369C169.799 13.416 170.69 12.3063 170.836 12.1286C170.885 12.0693 171.058 11.8485 171.22 11.6438C171.382 11.4337 171.549 11.2344 171.587 11.1913C171.727 11.0458 171.906 10.728 171.992 10.4641C172.073 10.2217 172.084 9.76379 172.084 5.8476C172.084 2.63708 172.068 1.45738 172.019 1.35503C171.987 1.27961 171.879 1.17188 171.787 1.11263C171.614 1.00489 171.441 1.00489 156.313 0.988728C147.901 0.983341 140.936 0.9995 140.845 1.02105Z" fill="#FF4350"/>
<path d="M182.686 1.01024C182.449 1.05872 182.297 1.15568 182.211 1.32806C182.141 1.46811 182.13 3.65514 182.13 20.6235C182.13 35.825 182.146 39.7897 182.2 39.8974C182.238 39.9674 182.351 40.0859 182.449 40.1506L182.632 40.2745H185.739C188.678 40.2745 188.862 40.2691 189.202 40.1667C189.624 40.0428 189.937 39.8004 190.299 39.3318C190.44 39.154 190.612 38.9332 190.683 38.847C190.877 38.61 194.729 33.7996 194.854 33.638C194.913 33.5625 195.253 33.137 195.61 32.7007C195.961 32.2589 196.485 31.6071 196.772 31.2516C197.053 30.8961 197.296 30.5944 197.312 30.5783C197.328 30.5621 197.474 30.379 197.636 30.1743C197.798 29.9642 197.944 29.7864 197.96 29.7702C197.977 29.7541 198.16 29.5278 198.366 29.2693C199.035 28.4236 199.273 28.1273 199.803 27.4755C200.084 27.1253 200.365 26.7644 200.419 26.6836C200.473 26.6028 200.543 26.5382 200.581 26.549C200.619 26.5597 200.97 26.9637 201.359 27.4539C201.748 27.9441 202.099 28.3805 202.137 28.4236C202.169 28.472 202.299 28.6283 202.418 28.7737C202.531 28.9245 202.645 29.0538 202.661 29.07C202.699 29.1023 203.152 29.6733 203.363 29.9534C203.439 30.0557 204.071 30.8476 204.768 31.7149C205.47 32.5875 206.189 33.4817 206.362 33.7026C206.54 33.9235 206.724 34.1551 206.772 34.2143C206.87 34.3275 208.107 35.8789 208.534 36.4229C208.674 36.6007 208.804 36.7569 208.82 36.7731C208.836 36.7892 208.982 36.967 209.144 37.1771C209.306 37.3818 209.452 37.5649 209.468 37.5811C209.485 37.5972 209.631 37.775 209.793 37.9851C209.955 38.1898 210.101 38.3729 210.117 38.3891C210.133 38.4053 210.311 38.6261 210.511 38.8793C211.235 39.8112 211.489 40.0213 212.121 40.2152C212.251 40.2583 213.558 40.2745 216.271 40.2745C220.636 40.2745 220.507 40.2852 220.555 39.9513C220.571 39.8597 220.55 39.7304 220.517 39.6604C220.463 39.5634 219.842 38.7662 219.421 38.2544C219.367 38.1952 219.194 37.9743 219.032 37.7696C218.869 37.5595 218.724 37.3818 218.707 37.3656C218.691 37.3494 218.507 37.1232 218.302 36.8592C218.091 36.6007 217.789 36.2182 217.627 36.0189C217.465 35.8196 217.211 35.4964 217.059 35.3132C216.914 35.1247 216.746 34.92 216.698 34.8608C216.649 34.8015 216.357 34.4352 216.055 34.0527C215.747 33.6649 215.482 33.3417 215.466 33.3255C215.449 33.3094 215.304 33.1316 215.141 32.9215C214.747 32.4259 214.742 32.4152 214.536 32.162C214.272 31.8334 214.072 31.591 213.461 30.8207C213.153 30.4328 212.888 30.1096 212.872 30.0935C212.856 30.0773 212.71 29.8995 212.548 29.6894C212.154 29.1939 212.148 29.1831 211.943 28.9299C211.657 28.5798 211.478 28.3535 210.544 27.1846C210.063 26.5759 209.652 26.0695 209.631 26.0534C209.614 26.0372 209.468 25.8541 209.306 25.6494C209.144 25.4393 208.988 25.2454 208.955 25.213C208.928 25.1753 208.804 25.0245 208.685 24.8683C208.566 24.7121 208.393 24.4966 208.301 24.3889C208.21 24.2811 207.907 23.904 207.631 23.5485C207.351 23.193 206.999 22.7513 206.848 22.5735C206.702 22.3904 206.481 22.1156 206.362 21.9648C206.243 21.8086 206.097 21.6254 206.038 21.5554C205.978 21.4908 205.767 21.2322 205.573 20.9844C205.378 20.7366 204.973 20.2303 204.681 19.864C204.39 19.4977 204.039 19.0559 203.903 18.889C203.768 18.722 203.585 18.4849 203.487 18.3718C203.396 18.2587 203.061 17.8331 202.742 17.4345C202.423 17.0359 202.126 16.6588 202.077 16.5996C202.023 16.5403 201.85 16.3195 201.688 16.1148C201.526 15.9047 201.38 15.7269 201.364 15.7108C201.348 15.6946 201.083 15.366 200.775 14.9835C200.473 14.5957 200.181 14.2348 200.132 14.1755C200.084 14.1163 199.905 13.8954 199.743 13.6907C199.581 13.4806 199.435 13.3029 199.419 13.2867C199.403 13.2705 199.257 13.0874 199.095 12.8827C198.933 12.6726 198.787 12.4948 198.771 12.4787C198.755 12.4625 198.609 12.2794 198.447 12.0747C198.284 11.8646 198.139 11.6868 198.122 11.6707C198.106 11.6545 197.696 11.1482 197.209 10.5394C196.728 9.93074 196.291 9.38668 196.242 9.32742C196.188 9.26817 196.015 9.04731 195.853 8.84261C195.691 8.63253 195.545 8.45477 195.529 8.4386C195.513 8.42244 194.967 7.74371 194.313 6.93031C192.428 4.56551 192.314 4.42545 192.287 4.39852C192.271 4.38236 192.125 4.19921 191.963 3.99451C191.801 3.78443 191.655 3.60666 191.639 3.5905C191.623 3.57434 191.477 3.39119 191.315 3.1865C191.153 2.97641 191.007 2.79865 190.991 2.78249C190.969 2.76633 190.829 2.58318 190.666 2.37848C189.953 1.43579 189.629 1.16107 189.137 1.05872C188.84 0.999462 182.957 0.950981 182.686 1.01024ZM189.829 12.274C189.975 12.4625 190.132 12.6565 190.175 12.7049C190.223 12.7588 190.353 12.915 190.467 13.0551C190.575 13.1951 191.423 14.2563 192.347 15.4145C193.271 16.5673 194.394 17.9732 194.843 18.5388C195.291 19.099 195.675 19.5731 195.691 19.5892C195.707 19.6054 195.853 19.7832 196.015 19.9932C196.177 20.1979 196.356 20.4188 196.41 20.4781C196.458 20.5319 196.491 20.6127 196.48 20.6504C196.464 20.6828 196.156 21.0814 195.788 21.5285C195.421 21.9756 195.075 22.4119 195.016 22.4927C194.913 22.6274 193.065 24.9329 192.871 25.1646C192.822 25.2238 192.52 25.6009 192.206 25.9995C191.887 26.3981 191.558 26.8129 191.477 26.9153C191.39 27.0176 191.099 27.3839 190.829 27.7233C190.553 28.0626 190.272 28.4128 190.196 28.5044C190.126 28.5905 189.964 28.806 189.84 28.973C189.716 29.14 189.57 29.2801 189.521 29.2801C189.429 29.2854 189.424 28.8383 189.424 20.6504C189.424 15.8993 189.44 11.9939 189.462 11.9777C189.526 11.9077 189.57 11.94 189.829 12.274Z" fill="#FF4350"/>
<path d="M215.471 1.02107C215.314 1.05339 215.212 1.11803 215.115 1.24193L214.979 1.41969L214.99 10.9489L215.007 20.4781L215.131 20.7367C215.233 20.9468 215.59 21.4316 216.049 21.9864C216.098 22.0457 216.276 22.2665 216.438 22.4712C216.6 22.6813 216.746 22.8591 216.762 22.8752C216.795 22.9021 217.74 24.0872 218.032 24.4643C218.124 24.5774 218.254 24.7444 218.335 24.836C218.41 24.9276 218.518 25.0676 218.578 25.143C218.632 25.2239 218.972 25.644 219.329 26.0857C219.685 26.5274 220.004 26.9261 220.042 26.9692C220.074 27.0123 220.188 27.1469 220.285 27.2708C220.382 27.3893 220.539 27.5779 220.626 27.6964C220.717 27.8095 220.863 27.9873 220.95 28.1004C221.042 28.2081 221.187 28.3913 221.274 28.5044C221.571 28.8922 221.663 28.9623 221.868 28.9623C221.987 28.9623 222.1 28.9192 222.165 28.8545C222.273 28.7468 222.273 28.6768 222.273 20.7528C222.273 16.3518 222.295 12.7427 222.322 12.7265C222.371 12.6942 222.506 12.8397 222.814 13.2329C222.911 13.3676 223.078 13.5723 223.181 13.6908C223.278 13.8093 223.376 13.9332 223.397 13.9601C223.446 14.0301 223.846 14.5311 223.921 14.6173C223.948 14.6496 224.029 14.7466 224.094 14.8328C224.229 15.0051 225.153 16.1687 225.288 16.3303C225.337 16.3895 225.515 16.6104 225.677 16.8151C225.839 17.0252 225.985 17.2029 226.001 17.2191C226.018 17.2353 226.163 17.413 226.326 17.6231C226.488 17.8278 226.634 18.011 226.65 18.0271C226.666 18.0433 226.812 18.221 226.974 18.4311C227.379 18.9429 227.303 18.8513 227.919 19.6162C228.011 19.7293 228.157 19.9125 228.244 20.0256C228.335 20.1333 228.519 20.365 228.66 20.5427C228.8 20.7151 229.243 21.2646 229.648 21.7709C230.048 22.2719 230.443 22.7675 230.529 22.8698C230.896 23.3277 231.015 23.4731 231.215 23.7371C231.334 23.8933 231.458 24.0441 231.485 24.0819C231.577 24.1842 233.479 26.5382 233.592 26.6944C233.652 26.7699 233.944 27.1362 234.241 27.5078C234.538 27.8741 234.878 28.2997 234.997 28.4505C235.116 28.6067 235.516 29.1077 235.889 29.5656C236.261 30.0289 236.64 30.4975 236.726 30.6106C236.818 30.7237 236.964 30.9015 237.05 31.0092C237.142 31.1116 237.347 31.3648 237.51 31.5749C237.672 31.7796 237.817 31.9627 237.834 31.9789C237.85 31.995 238.034 32.2213 238.239 32.4906C238.45 32.7546 238.655 33.0239 238.709 33.0832C238.882 33.2879 239.157 33.6326 239.319 33.8373C239.411 33.9558 239.563 34.1444 239.66 34.2629C239.757 34.3868 239.871 34.5214 239.903 34.5645C239.941 34.6076 240.297 35.0547 240.697 35.5611C242.502 37.8235 243.204 38.6962 243.328 38.847C243.399 38.9332 243.572 39.1541 243.712 39.3318C244.074 39.8005 244.387 40.0429 244.809 40.1668C245.149 40.2691 245.333 40.2745 248.256 40.2745C251.616 40.2745 251.525 40.2799 251.768 39.9728L251.881 39.8274V20.6559C251.881 3.62288 251.87 1.46817 251.8 1.32812C251.627 0.994137 251.708 1.00491 248.24 1.00491C246.386 1.00491 245.03 1.02646 244.949 1.05339C244.879 1.08033 244.766 1.17729 244.701 1.26348L244.587 1.42508V14.9782C244.587 26.7806 244.576 28.5313 244.506 28.5313C244.468 28.5313 244.409 28.499 244.387 28.4559C244.344 28.3859 244.155 28.1435 243.858 27.7772C243.555 27.4055 243.366 27.1685 241.626 24.9814C241.545 24.8845 241.394 24.6959 241.292 24.5721C241.189 24.4482 241.032 24.2488 240.94 24.1411C240.854 24.028 240.708 23.8448 240.616 23.7371C240.53 23.624 240.357 23.4085 240.238 23.2523C240.049 23.0099 238.45 21.006 238.001 20.4566C237.915 20.3488 237.439 19.7509 236.942 19.1314C236.445 18.5065 235.97 17.914 235.889 17.8116C235.808 17.7093 235.489 17.3053 235.181 16.9228C234.873 16.535 234.608 16.2118 234.592 16.1956C234.576 16.1795 234.43 16.0017 234.268 15.7916C234.106 15.5869 233.944 15.3768 233.906 15.3337C233.814 15.2152 233.463 14.7843 233.36 14.6604C233.306 14.6011 233.133 14.3803 232.971 14.1756C232.809 13.9709 232.631 13.75 232.582 13.6908C232.479 13.5669 231.366 12.1825 230.988 11.6977C230.848 11.5199 230.718 11.3637 230.702 11.3475C230.686 11.3314 230.129 10.6419 229.465 9.81229C228.805 8.98273 228.222 8.25551 228.173 8.19625C228.119 8.137 227.946 7.91615 227.784 7.71144C227.622 7.50136 227.476 7.3236 227.46 7.30744C227.444 7.29128 227.298 7.11351 227.136 6.90343C226.974 6.69873 226.801 6.47787 226.747 6.41862C226.617 6.25702 226.12 5.63754 225.812 5.24969C225.666 5.06115 225.531 4.89955 225.51 4.88339C225.493 4.86723 225.353 4.68408 225.196 4.47938C225.034 4.2693 224.888 4.09153 224.872 4.07537C224.851 4.05921 224.705 3.87606 224.543 3.67136C223.57 2.42163 222.803 1.49511 222.63 1.36044C222.517 1.27964 222.295 1.16652 222.138 1.10726C221.863 1.0103 221.63 1.00491 218.767 0.994137C217.076 0.983364 215.59 0.999523 215.471 1.02107Z" fill="#FF4350"/>
<path d="M270.225 1.00483C257.636 1.03176 257.528 1.03176 257.382 1.1395C257.301 1.19875 257.209 1.31726 257.177 1.40345C257.096 1.64046 257.101 7.30735 257.187 7.50666C257.279 7.71136 257.425 7.83526 257.658 7.8999C257.782 7.93222 259.711 7.95377 263.006 7.95377C265.843 7.95377 268.166 7.95915 268.177 7.96992C268.188 7.9807 268.209 15.1505 268.231 23.904C268.269 39.5203 268.269 39.8219 268.371 39.9674C268.593 40.2798 268.507 40.2744 271.894 40.2744C275.417 40.2744 275.287 40.2906 275.498 39.865L275.606 39.6388L275.568 23.7963L275.53 7.95377L282.127 7.94299L288.719 7.92683L288.859 7.79755C289.016 7.64672 289.043 7.41509 288.919 7.26965C288.875 7.21578 288.519 6.77406 288.13 6.28387C287.741 5.79367 287.384 5.34657 287.336 5.28731C287.287 5.22806 287.109 5.0072 286.947 4.8025C286.784 4.59781 286.606 4.37695 286.558 4.31769C286.471 4.20996 285.461 2.95484 284.958 2.32458C284.818 2.14682 284.656 1.94212 284.596 1.86671C284.186 1.34958 283.775 1.0964 283.246 1.02098C283.067 0.999439 277.211 0.988663 270.225 1.00483Z" fill="#FF4350"/>
</svg>
