<svg width="219" height="25" viewBox="0 0 219 25" fill="none" xmlns="http://www.w3.org/2000/svg">
<path d="M20.6183 17.3094V17.3351C20.6183 17.438 20.6146 17.5371 20.6109 17.6363V17.6436C20.6072 17.6914 20.6072 17.7391 20.6036 17.7869C20.5999 17.8346 20.5962 17.886 20.5925 17.9338C20.5889 17.9815 20.5852 18.0256 20.5779 18.0733C20.4199 19.7297 19.7331 21.1621 18.5175 22.3777C17.1182 23.777 15.4288 24.4749 13.4492 24.4749H0V20.2439H13.4492C14.2646 20.2439 14.9587 19.9574 15.5316 19.3882C15.8108 19.109 16.0201 18.8042 16.1633 18.4663C16.38 17.9595 16.3874 17.5261 16.391 17.3094C16.3947 17.1001 16.3947 16.7769 16.2809 16.4023C16.2625 16.3435 16.2441 16.2884 16.2221 16.226C15.7373 14.9111 14.6869 14.3162 13.328 14.2648C11.2897 14.1913 9.24773 14.2721 7.20941 14.2207C3.1695 14.1215 0.12487 11.1981 0.0073453 7.36743V7.35641C0.0073453 7.32703 0.0073453 7.30133 0.0073453 7.27195C0.0073453 7.23889 0.0073453 7.20584 0.0073453 7.16911C0.0073453 7.04057 0.0110179 6.91202 0.0146906 6.78347C0.0183632 6.699 0.0220359 6.61453 0.0293812 6.53373C0.0293812 6.52271 0.0293812 6.5117 0.0330538 6.50068C0.0367265 6.44192 0.0440718 6.38682 0.0514171 6.33173C0.0587624 6.26929 0.0661077 6.21053 0.073453 6.15177C0.0807983 6.08933 0.0881436 6.0269 0.0991615 5.96813C0.110179 5.89101 0.12487 5.81388 0.139561 5.74043C0.161597 5.62657 0.187305 5.51272 0.213014 5.39887C0.227704 5.34011 0.242395 5.27766 0.260758 5.2189C0.268103 5.18585 0.279121 5.1528 0.286467 5.12342C0.308502 5.05364 0.330538 4.98018 0.352574 4.91407C0.367265 4.87734 0.378283 4.83695 0.392973 4.80022C0.415009 4.73778 0.437045 4.67535 0.459081 4.61658C0.466426 4.59455 0.477444 4.57251 0.48479 4.55048C0.514171 4.46968 0.547225 4.39255 0.583951 4.31542C0.617005 4.23829 0.653732 4.16116 0.690458 4.08404C0.763911 3.93346 0.841037 3.78288 0.925508 3.63964C0.903472 3.67637 0.881436 3.71309 0.863072 3.74982C1.18259 3.16219 1.5976 2.60761 2.1081 2.09711C3.50738 0.697809 5.1968 0 7.17636 0H19.1933V4.23095H7.16534C6.37205 4.23095 5.68526 4.52476 5.10498 5.10505C4.52103 5.68533 4.23089 6.37947 4.23089 7.18379C4.23089 7.98812 4.5247 8.67491 5.10498 9.24785C5.57141 9.70326 6.04885 9.89058 6.15903 9.93098C6.57404 10.0816 6.93763 10.1073 7.16534 10.1036C9.25875 10.1036 11.3558 10.1036 13.4492 10.1036C15.4288 10.1036 17.1219 10.8088 18.5175 12.2191C19.8727 13.5853 20.5705 15.2197 20.6146 17.1221C20.6183 17.1845 20.6183 17.247 20.6183 17.3094Z" fill="#E8441E"/>
<path d="M128.99 17.3094V17.3351C128.99 17.438 128.987 17.5371 128.983 17.6363V17.6436C128.979 17.6914 128.979 17.7391 128.976 17.7869C128.972 17.8346 128.968 17.886 128.965 17.9338C128.961 17.9815 128.957 18.0256 128.95 18.0733C128.792 19.7297 128.105 21.1621 126.89 22.3777C125.49 23.777 123.801 24.4749 121.821 24.4749H108.372V20.2439H121.821C122.637 20.2439 123.331 19.9574 123.904 19.3882C124.183 19.109 124.392 18.8042 124.535 18.4663C124.752 17.9595 124.759 17.5261 124.763 17.3094C124.767 17.1001 124.767 16.7769 124.653 16.4023C124.635 16.3435 124.616 16.2884 124.594 16.226C124.109 14.9111 123.059 14.3162 121.7 14.2648C119.662 14.1913 117.62 14.2721 115.581 14.2207C111.542 14.1215 108.497 11.1981 108.379 7.36743V7.35641C108.379 7.32703 108.379 7.30133 108.379 7.27195C108.379 7.23889 108.379 7.20584 108.379 7.16911C108.379 7.04057 108.383 6.91202 108.387 6.78347C108.39 6.699 108.394 6.61453 108.401 6.53373C108.401 6.52271 108.401 6.5117 108.405 6.50068C108.409 6.44192 108.416 6.38682 108.423 6.33173C108.431 6.26929 108.438 6.21053 108.446 6.15177C108.453 6.08933 108.46 6.0269 108.471 5.96813C108.482 5.89101 108.497 5.81388 108.512 5.74043C108.534 5.62657 108.559 5.51272 108.585 5.39887C108.6 5.34011 108.614 5.27766 108.633 5.2189C108.64 5.18585 108.651 5.1528 108.659 5.12342C108.681 5.05364 108.703 4.98018 108.725 4.91407C108.739 4.87734 108.75 4.83695 108.765 4.80022C108.787 4.73778 108.809 4.67535 108.831 4.61658C108.838 4.59455 108.85 4.57251 108.857 4.55048C108.886 4.46968 108.919 4.39255 108.956 4.31542C108.989 4.23829 109.026 4.16116 109.063 4.08404C109.136 3.93346 109.213 3.78288 109.298 3.63964C109.276 3.67637 109.254 3.71309 109.235 3.74982C109.555 3.16219 109.97 2.60761 110.48 2.09711C111.879 0.697809 113.569 0 115.548 0H127.565V4.23095H115.548C114.755 4.23095 114.068 4.52476 113.488 5.10505C112.904 5.68533 112.614 6.37947 112.614 7.18379C112.614 7.98812 112.908 8.67491 113.488 9.24785C113.955 9.70326 114.432 9.89058 114.542 9.93098C114.957 10.0816 115.321 10.1073 115.548 10.1036C117.642 10.1036 119.739 10.1036 121.832 10.1036C123.812 10.1036 125.505 10.8088 126.901 12.2191C128.256 13.5853 128.954 15.2197 128.998 17.1221C128.987 17.1845 128.99 17.247 128.99 17.3094Z" fill="#E8441E"/>
<path d="M40.6582 0L32.1964 12.2374L40.6582 24.4749H35.5165L29.6439 15.9799L27.0547 12.2374L35.5165 0H40.6582Z" fill="#E8441E"/>
<path d="M52.1977 24.4785H47.9668V0.00366211H52.1977V24.4785Z" fill="#E8441E"/>
<path d="M63.8188 17.247H59.5879V0.00366211H63.8188V17.247Z" fill="#E8441E"/>
<path d="M63.8188 20.2476H76.8273V24.4785H59.5879C60.9982 23.0682 62.4085 21.6579 63.8188 20.2476Z" fill="#E8441E"/>
<path d="M88.3637 17.247H84.1328V0.00366211H88.3637V17.247Z" fill="#E8441E"/>
<path d="M88.3637 20.2476H101.372V24.4785H84.1328C85.5431 23.0682 86.9534 21.6579 88.3637 20.2476Z" fill="#E8441E"/>
<path d="M169.478 24.4785H165.247V0.00366211H169.478V24.4785Z" fill="#E8441E"/>
<path d="M157.911 12.2411C157.911 13.5706 157.705 14.8561 157.297 16.1048C156.89 17.3498 156.306 18.4773 155.549 19.4763C154.793 20.4789 153.911 21.3604 152.909 22.117C151.906 22.8735 150.782 23.4575 149.533 23.8652C148.288 24.2728 146.999 24.4785 145.67 24.4785H136.271V10.0999H140.502V20.2476H145.67C146.533 20.2476 147.37 20.1154 148.186 19.8436C149.001 19.5755 149.735 19.1935 150.389 18.6904C151.043 18.1909 151.619 17.6106 152.119 16.9568C152.618 16.3068 153.004 15.5686 153.272 14.7532C153.54 13.9379 153.676 13.0968 153.676 12.2374C153.676 10.0228 152.894 8.13502 151.333 6.57412C149.772 5.01323 147.884 4.23095 145.67 4.23095H140.502C139.092 2.82064 137.682 1.41032 136.271 0H145.67C147.884 0 149.93 0.547236 151.807 1.64537C153.684 2.73983 155.167 4.22727 156.265 6.10402C157.364 7.98077 157.911 10.0228 157.911 12.2411Z" fill="#E8441E"/>
<path d="M194.05 0.00366211V4.2346H181.045C179.635 2.82429 178.225 1.41398 176.814 0.00366211H194.05Z" fill="#E8441E"/>
<path d="M194.051 10.1072V14.3382H181.042V24.4785H176.812V10.1072H194.051Z" fill="#E8441E"/>
<path d="M218.625 0.00366211V4.2346H205.621C204.21 2.82429 202.8 1.41398 201.39 0.00366211H218.625Z" fill="#E8441E"/>
<path d="M218.628 10.1072V14.3382H205.62V24.4785H201.389V10.1072H218.628Z" fill="#E8441E"/>
</svg>
