<svg width="156" height="32" viewBox="0 0 156 32" fill="none" xmlns="http://www.w3.org/2000/svg">
<g clip-path="url(#clip0_1909_3762)">
<path d="M146.949 18.8895H146.844H122.755H122.291L122.11 19.3168L119.936 24.434L119.521 25.4103H120.581H144.123C145.64 25.4103 146.672 26.9701 146.072 28.3812L144.833 31.2982H109.492L114.557 19.3781C116.222 15.4597 120.052 12.9194 124.289 12.9194H144.651H145.115L145.296 12.4921L147.431 7.46818L147.845 6.49193H146.785H120.032L122.494 0.701752H150.351C153.891 0.701752 156.289 4.3392 154.895 7.62018L151.388 15.8749C150.624 17.673 148.885 18.8484 146.949 18.8895Z" stroke="#9B772B" stroke-width="5"/>
<path fill-rule="evenodd" clip-rule="evenodd" d="M6.87348 0.869904C5.16548 0.869488 3.62091 1.87994 2.94484 3.43918L0.17305 9.91275C-0.427165 11.3153 0.607702 12.8716 2.14093 12.8716H11.1663C11.5947 12.8716 11.9816 12.6175 12.1496 12.2258L13.0466 10.1369H3.54799L6.08759 4.21669L4.70859 3.56833H15.1608C15.5891 3.56833 15.976 3.31415 16.1441 2.92249L17.0251 0.871153L6.87348 0.869904ZM30.1579 10.2853C29.4871 11.8537 27.9406 12.8716 26.2284 12.8716H16.6887C15.1569 12.8716 14.1231 11.3132 14.725 9.91025L17.4965 3.45125C18.1682 1.88578 19.7135 0.869909 21.424 0.869909H30.9638C32.496 0.869909 33.5293 2.42872 32.9275 3.83126L30.1579 10.2853ZM27.0365 9.4915L29.5766 3.56836H19.3205L20.6321 4.21669L18.0921 10.1369H26.0547C26.4824 10.1369 26.8687 9.88277 27.0365 9.49108V9.4915ZM38.5202 30.7337H36.4925L40.4893 21.4291C40.3333 21.4291 36.0711 21.4299 36.0711 21.4299L37.2391 18.7319H49.5098L48.6981 20.6429C48.5045 21.0995 47.9526 21.4299 47.4128 21.4299H43.9213L40.4893 29.4403C40.1534 30.2246 39.3785 30.7337 38.5202 30.7337ZM78.6773 27.3966H77.5979L74.6623 27.3924L73.2044 30.7332H69.8327L74.9981 18.7319H78.3611L75.9271 24.3974L83.9148 18.9203C84.0932 18.7978 84.3051 18.7319 84.5223 18.7319H89.5785L80.6287 24.9174L84.6676 30.7337H80.9732L78.6773 27.397V27.3966ZM72.2238 18.7319H68.766L63.6082 30.7337H66.1255C66.6661 30.7337 67.2444 30.377 67.4386 29.9197L70.4458 22.8864L72.2238 18.7319ZM62.1118 30.7332H58.5104L57.0247 27.9986H50.6503L50.0305 29.442C49.6944 30.2254 48.9203 30.7332 48.0637 30.7332H46.0085L51.1621 18.7319H62.6245C64.1584 18.7319 65.1934 20.2903 64.591 21.6928L62.3697 26.867C62.0751 27.5536 61.3964 27.9991 60.6456 27.9991L62.1124 30.7337L62.1118 30.7332ZM63.2386 24.7882L61.3307 21.4299L51.8818 21.4382L53.1893 22.0674L51.7962 25.3299H58.9579C59.3869 25.3299 59.7741 25.0749 59.9419 24.6824L61.3302 21.4303L63.2386 24.7882ZM91.8733 23.7167H99.6239L98.8942 25.4105C98.7255 25.8009 98.3398 26.0543 97.913 26.0543H90.8647L90.0249 27.999H99.4918L98.6015 30.0862C98.4343 30.4786 98.0477 30.7337 97.6192 30.7337H87.0191C86.2534 30.7337 85.7369 29.9545 86.0374 29.253L89.9943 20.0232C90.3304 19.2403 91.1029 18.7319 91.9583 18.7319H103.47L102.592 20.7833C102.424 21.175 102.037 21.4291 101.61 21.4291H91.246L92.5818 22.0646L91.8733 23.7167ZM35.6595 10.1349L39.5987 0.872413H37.5432C36.6878 0.872413 35.9145 1.38 35.5781 2.16264L32.2463 9.90902C31.643 11.3118 32.6775 12.8716 34.2114 12.8716H42.9592C44.6749 12.8716 46.224 11.8519 46.8943 10.2812L50.9107 0.872413L48.8777 0.869912C48.0197 0.868663 47.2439 1.37834 46.9083 2.16431L43.7774 9.48603C43.6107 9.88027 43.2224 10.1366 42.7923 10.1366L35.6595 10.1349ZM70.9202 12.8716H68.8922L72.8893 3.56709C72.7333 3.56709 68.4708 3.56794 68.4708 3.56794L69.6388 0.869909H81.9095L81.0981 2.78082C80.9042 3.23749 80.3523 3.56794 79.8125 3.56794H76.321L72.8893 11.5782C72.5532 12.3624 71.7782 12.8716 70.9202 12.8716ZM108.213 10.137L109.68 12.8712H106.079L104.593 10.1366H98.2185L97.5987 11.58C97.2626 12.3633 96.4885 12.8712 95.6319 12.8712H93.5767L98.73 0.869909H110.192C111.726 0.869909 112.762 2.42825 112.159 3.83076L109.938 9.00493C109.643 9.69161 108.965 10.137 108.213 10.137ZM108.899 3.56785L110.807 6.9262L108.899 3.56824L107.51 6.82034C107.343 7.21285 106.955 7.46787 106.526 7.46787H99.3644L100.757 4.20535L99.45 3.57616L108.899 3.56785ZM92.7712 5.8547H85.0023L85.7125 4.20255L84.3736 3.56709H94.7616C95.1903 3.56709 95.5778 3.31292 95.7461 2.92123L96.6268 0.869909H85.0876C84.2302 0.869909 83.4558 1.37826 83.1191 2.16121L79.1529 11.3912C78.8515 12.0924 79.3692 12.8716 80.1369 12.8716H90.7617C91.1913 12.8716 91.5787 12.6166 91.7465 12.2241L92.6387 10.1369H83.1497L83.9914 8.19227H91.0563C91.4842 8.19227 91.8708 7.93894 92.0397 7.54851L92.7712 5.8547ZM52.0888 11.5797C51.7524 12.3629 50.978 12.8716 50.1206 12.8716H48.0646L53.221 0.871992L55.7972 0.869909C56.1939 0.869909 56.5584 1.08738 56.7436 1.43608L60.8577 9.16962L63.8812 2.16265C64.2178 1.38192 64.9903 0.875327 65.8455 0.874493L67.9341 0.871992L63.0495 12.2263C62.8812 12.6175 62.4943 12.8716 62.0655 12.8716H59.8785C59.4823 12.8716 59.1187 12.6542 58.9332 12.3063L54.9701 4.8748L52.088 11.5797H52.0888ZM28.1493 27.999L28.9731 26.0801L28.9734 26.0797L22.555 26.0801H21.7691C20.2366 26.0801 19.2017 24.5255 19.8003 23.1234L20.1201 22.3746L20.5678 21.3245C21.238 19.7528 22.7885 18.7319 24.5058 18.7319H35.4939L34.6168 20.7828C34.4493 21.1754 34.0616 21.4299 33.6329 21.4299H22.2792L23.6239 22.0783L23.0954 23.3142H30.2923C31.8265 23.3142 32.8618 24.8726 32.2594 26.2751L31.4539 28.151C30.7817 29.7173 29.2332 30.7337 27.5201 30.7337H16.5312L17.4354 28.6422C17.6043 28.2518 17.9903 27.999 18.4179 27.999H28.1493Z" fill="#9B772B"/>
</g>
<defs>
<clipPath id="clip0_1909_3762">
<rect width="156" height="32" fill="white"/>
</clipPath>
</defs>
</svg>
