<svg width="143" height="23" viewBox="0 0 143 23" fill="none" xmlns="http://www.w3.org/2000/svg">
<path d="M100.39 0.144714C100.301 0.222639 100.111 0.556597 99.9778 0.890554C99.8443 1.22451 99.6105 1.82563 99.4435 2.22638C98.5752 4.36371 98.1856 5.42125 98.1745 5.59936C98.1745 5.71067 98.0965 5.82199 98.0075 5.85539C97.9184 5.89992 97.8405 6.0335 97.8405 6.16708C97.8405 6.30067 97.796 6.45651 97.7403 6.5233C97.6846 6.57896 97.5399 6.90179 97.4175 7.23575C97.1058 8.10404 96.538 9.50666 96.1707 10.3527C95.9926 10.7534 95.8145 11.221 95.7699 11.4102C95.7254 11.5883 95.6141 11.8555 95.525 11.9891C95.436 12.1338 95.4026 12.2451 95.4471 12.2451C95.4916 12.2451 95.4694 12.3119 95.4026 12.3898C95.3358 12.4789 95.3135 12.5791 95.3581 12.6125C95.3914 12.657 95.3692 12.6904 95.3024 12.6904C95.2245 12.6904 95.1688 12.746 95.1688 12.8128C95.1688 12.8685 95.0798 13.1357 94.9684 13.3917C94.846 13.6477 94.6456 14.1598 94.512 14.5272C94.3673 14.8945 94.2115 15.2953 94.1558 15.4177C94.1113 15.5402 93.8886 16.0856 93.6771 16.6422C93.4767 17.1877 93.1873 17.889 93.0426 18.2007C92.909 18.5012 92.7866 18.7795 92.7866 18.8129C92.7754 18.8463 92.742 18.9131 92.6975 18.9799C92.6641 19.0356 92.4971 19.4363 92.3301 19.8705C92.152 20.2935 91.985 20.672 91.9405 20.7054C91.9071 20.7388 91.7624 20.9391 91.64 21.1506C91.5064 21.3622 91.1279 21.7072 90.8051 21.8965C90.3041 22.197 90.0926 22.2638 89.5471 22.2638C89.0128 22.275 88.9237 22.2972 89.0907 22.3863C89.2132 22.4642 89.5583 22.4865 89.9813 22.4419C90.3486 22.3974 91.8737 22.364 93.3654 22.3529C95.8924 22.3418 96.7496 22.2972 95.4026 22.2527C95.013 22.2304 94.6901 22.1525 94.4675 21.9855C94.1558 21.7852 94.1113 21.685 94.1001 21.2063C94.089 20.7276 94.4786 19.325 94.8348 18.5346C94.8905 18.4122 94.9796 18.1339 95.0352 17.9224L95.1243 17.5328H99.7329H104.342L104.52 18.0894C104.62 18.3899 104.753 18.7684 104.831 18.9243C105.076 19.4697 105.733 21.2063 105.8 21.5069C105.9 21.8854 105.689 22.2638 105.377 22.2861C104.598 22.3418 109.429 22.4197 110.865 22.364C111.811 22.3306 112.301 22.2972 111.945 22.2861C111.589 22.275 111.143 22.197 110.943 22.108C110.486 21.9187 109.529 21.0727 109.529 20.8612C109.529 20.7722 109.496 20.7054 109.44 20.7054C109.318 20.7054 108.16 18.3231 108.026 17.7777C107.959 17.5105 107.982 17.4882 108.494 17.4215C108.995 17.3435 110.086 17.0318 110.587 16.8092C110.709 16.7535 111.21 16.6756 111.711 16.6422C113.403 16.5086 112.869 16.4084 110.23 16.3751C108.694 16.3639 107.536 16.3083 107.459 16.2415C107.314 16.119 107.047 15.4956 106.178 13.247C105.867 12.4232 105.544 11.644 105.477 11.5215C105.421 11.3991 105.355 11.2766 105.355 11.2432C105.332 11.1876 105.243 10.9649 104.865 10.0967C104.742 9.80722 104.631 9.52892 104.62 9.4844C104.609 9.43987 104.453 9.08365 104.275 8.70516C104.108 8.31554 103.963 7.93706 103.963 7.85913C103.963 7.70329 102.616 4.30805 102.238 3.49542C102.093 3.18373 101.881 2.68279 101.781 2.38223C101.514 1.58073 100.768 0 100.657 0C100.612 0 100.49 0.0667915 100.39 0.144714ZM99.9333 5.82199C100 5.89992 100.134 6.21161 100.234 6.51217C100.412 7.06877 100.468 7.22462 100.735 7.848C100.813 8.02611 100.902 8.27102 100.924 8.38234C100.946 8.50479 101.035 8.69403 101.124 8.82761C101.213 8.96119 101.291 9.2061 101.291 9.37308C101.291 9.55119 101.336 9.68477 101.392 9.68477C101.481 9.68477 101.993 11.0985 102.015 11.4102C102.026 11.4659 102.093 11.6329 102.16 11.7776C102.238 11.9112 102.271 12.0781 102.238 12.1338C102.204 12.2006 102.215 12.2451 102.271 12.2451C102.371 12.2451 102.538 12.6459 102.572 12.9687C102.583 13.0243 102.672 13.2692 102.772 13.4919C102.872 13.7257 103.039 14.2043 103.15 14.5494C103.262 14.9056 103.384 15.2062 103.429 15.2285C103.484 15.2507 103.518 15.3843 103.518 15.5179C103.518 15.6515 103.573 15.8185 103.64 15.8852C103.74 15.9854 103.729 16.0522 103.618 16.1635C103.496 16.2749 102.683 16.3083 99.7329 16.2971C97.6846 16.286 95.9703 16.2749 95.9258 16.2637C95.8145 16.2415 95.9592 15.4734 96.1818 14.9502C96.2931 14.7053 96.3488 14.4604 96.3043 14.4158C96.2597 14.3824 96.3154 14.2934 96.4267 14.2377C96.5269 14.1709 96.616 14.0262 96.616 13.9149C96.616 13.7924 96.6939 13.5141 96.7941 13.2804C97.0167 12.7794 97.0835 12.5902 97.3396 11.8555C97.4509 11.5438 97.5845 11.2544 97.629 11.1876C97.6846 11.1319 97.7292 11.0317 97.7292 10.9538C97.7292 10.887 97.8182 10.631 97.9184 10.3972C98.0186 10.1523 98.1188 9.88514 98.1299 9.78496C98.1299 9.6959 98.3526 9.07251 98.6086 8.41573C98.8535 7.75895 99.065 7.12443 99.065 7.01311C99.065 6.89066 99.1652 6.69028 99.2877 6.56783C99.4212 6.43425 99.488 6.28953 99.4546 6.23388C99.3878 6.12255 99.6216 5.67728 99.7441 5.67728C99.7886 5.67728 99.8665 5.74407 99.9333 5.82199Z" fill="#D7291E"/>
<path d="M41.1223 0.545614C39.6083 0.924101 37.9496 1.52522 37.9496 1.6922C37.9496 1.73673 37.8717 1.78126 37.7827 1.78126C37.5934 1.78126 37.137 2.08182 36.1017 2.91671C34.0757 4.53084 32.7399 6.9242 32.3168 9.70718C31.994 11.7777 32.1276 13.4364 32.7844 15.5292C33.1517 16.6869 33.2074 16.7982 33.9867 17.9782C34.7436 19.1248 35.5229 19.9819 36.2019 20.4384C36.458 20.6053 36.7697 20.8391 36.8921 20.9393C37.1815 21.1842 38.5174 21.8521 39.2855 22.1415C39.6195 22.264 40.4432 22.4755 41.1111 22.6091C42.1687 22.8206 42.5583 22.8428 44.0611 22.7872C45.6085 22.7315 47.0334 22.5312 47.6902 22.2751C47.8126 22.2195 48.1911 22.097 48.5251 21.9746C49.4379 21.674 50.5066 21.0729 51.219 20.4717C51.5641 20.1712 51.8869 19.9263 51.9315 19.9263C52.0428 19.9263 52.5994 19.3252 52.7441 19.0469C52.822 18.9133 52.9445 18.8131 53.0224 18.8131C53.1115 18.8131 53.2005 18.724 53.245 18.6127C53.2784 18.5125 53.5122 18.1229 53.7571 17.7556C54.1913 17.1099 54.4362 16.6312 54.8926 15.5848C55.0039 15.3065 55.1486 14.9837 55.2043 14.8613C55.2599 14.7388 55.3379 14.4382 55.3713 14.1933C55.4603 13.6701 55.4714 13.5922 55.5939 13.3139C55.6496 13.1915 55.683 12.3677 55.6941 11.4772C55.6941 9.30643 55.5605 8.02627 55.2933 7.71457C55.2265 7.63665 55.2154 7.56986 55.2599 7.56986C55.3045 7.56986 55.2822 7.50306 55.2154 7.41401C55.1486 7.32495 55.093 7.21363 55.1152 7.16911C55.1375 7.06892 54.2247 5.15423 53.9575 4.73122C53.8796 4.60876 53.746 4.46405 53.6792 4.41952C53.6013 4.375 53.5345 4.26368 53.5345 4.19688C53.5345 4.11896 53.2116 3.75161 52.822 3.39539C51.9092 2.54936 51.7867 2.44917 51.6532 2.44917C51.5975 2.44917 51.5196 2.37125 51.4862 2.27106C51.4528 2.18201 51.3749 2.12635 51.3192 2.15974C51.2747 2.19314 51.1411 2.12635 51.0298 2.0039C50.9184 1.88144 50.7737 1.78126 50.7181 1.78126C50.6513 1.78126 50.2394 1.60315 49.7941 1.38051C48.269 0.63467 47.1113 0.423164 44.2392 0.378637C42.3023 0.356373 41.7679 0.378637 41.1223 0.545614ZM44.5732 1.4807C45.4749 1.60315 47.7458 2.53823 47.7458 2.79426C47.7458 2.84992 47.8126 2.89445 47.9017 2.89445C48.3136 2.89445 50.0279 4.97612 50.5622 6.12271C50.8851 6.83515 51.219 7.59212 51.2524 7.70344C51.2747 7.7591 51.2969 7.80363 51.3081 7.81476C51.3192 7.83702 51.3526 8.04853 51.3749 8.29343C51.3971 8.53833 51.4639 8.74984 51.5307 8.7721C51.5864 8.79437 51.6198 8.85003 51.5975 8.88342C51.5752 8.92795 51.6198 9.30644 51.7088 9.74058C51.7979 10.2081 51.8535 11.2211 51.8535 12.3009C51.8424 14.8835 51.5084 16.4086 50.4954 18.4791C50.2617 18.9689 48.6141 20.7055 48.3915 20.7055C48.3358 20.7055 48.1466 20.8057 47.9796 20.9282C46.9888 21.6183 44.6957 21.8076 42.7364 21.3512C41.7234 21.1174 40.4544 20.4384 39.5638 19.648C39.3857 19.481 39.1296 19.2695 39.0072 19.1582C38.8847 19.058 38.6064 18.7352 38.3949 18.4457C38.1834 18.1452 37.9274 17.8224 37.8383 17.711C37.6491 17.5107 37.2817 16.776 37.2817 16.609C37.2817 16.5533 37.1927 16.3863 37.0814 16.2416C36.97 16.0969 36.7919 15.6739 36.6806 15.3065C36.5693 14.9392 36.4246 14.5162 36.3689 14.3603C36.1574 13.8149 35.9793 12.1673 35.957 10.6423C35.9236 8.31569 36.2019 6.76836 36.9478 5.17649C37.0925 4.8648 37.2149 4.59763 37.2149 4.56424C37.2261 4.53084 37.3708 4.3082 37.56 4.0633C38.4172 2.90558 39.7976 1.94824 40.9887 1.65881C41.3115 1.59202 41.7234 1.49183 41.9015 1.4473C42.2132 1.36938 43.8496 1.39164 44.5732 1.4807Z" fill="#D7291E"/>
<path d="M64.0867 0.567839C64.0422 1.15783 64.0199 1.29141 63.9643 1.44726C63.6971 2.20423 63.4077 4.23024 63.5747 4.23024C63.6192 4.23024 63.7082 4.041 63.7862 3.79609C63.942 3.26176 64.5209 2.62724 65.0441 2.4046C65.456 2.23763 66.3577 2.1597 69.4412 2.05951C70.4431 2.02612 71.3003 1.97046 71.3448 1.9482C71.3782 1.92593 71.4784 1.9482 71.5675 2.00385C71.7122 2.09291 71.7344 3.21723 71.7122 10.1524C71.6899 18.9244 71.6454 20.3159 71.3671 21.3066C71.1444 22.0747 70.8773 22.2528 69.9867 22.2751C69.5192 22.2862 69.4635 22.2973 69.7307 22.3641C69.9199 22.3975 71.8903 22.4087 74.1278 22.3753C76.3654 22.3419 77.9127 22.2973 77.5787 22.2862C76.165 22.2083 75.998 22.1415 75.6529 21.5738C75.3523 21.0951 75.3189 20.9392 75.241 19.5144C75.1631 18.39 75.0629 3.35082 75.1186 2.37121C75.152 1.9482 75.5416 1.89254 77.4118 2.04838C77.8459 2.08178 78.7476 2.13744 79.4267 2.17083C80.128 2.20423 80.8961 2.30442 81.2078 2.41574C81.8312 2.62724 82.41 3.18384 82.5436 3.70704C82.7551 4.59759 82.7885 4.54193 82.8108 3.22837C82.8331 2.46026 82.8442 1.53631 82.8553 1.16896C82.8665 0.779345 82.8219 0.512178 82.7551 0.52331C80.5955 0.879532 66.5469 0.879532 65.0552 0.512178C64.1424 0.289539 64.109 0.289539 64.0867 0.567839Z" fill="#D7291E"/>
<path d="M132.293 0.467648C131.447 0.623495 129.977 1.10217 129.577 1.34707L129.22 1.55858L129.276 2.9278C129.343 4.57533 129.443 5.46588 129.577 5.38796C129.632 5.35456 129.677 5.24324 129.677 5.14305C129.677 4.73117 130.178 3.42874 130.411 3.19497C130.556 3.06138 130.679 2.89441 130.679 2.82761C130.679 2.66063 131.068 2.22649 131.224 2.22649C131.291 2.22649 131.347 2.18196 131.347 2.13744C131.347 2.08178 131.703 1.8814 132.148 1.68103C132.849 1.3582 133.061 1.31367 133.974 1.30254C134.675 1.29141 135.054 1.33594 135.176 1.43612C135.276 1.52518 135.354 1.55858 135.354 1.51405C135.354 1.43612 136.556 2.04838 136.801 2.24875C137.102 2.50479 137.692 3.42874 137.87 3.91854C138.449 5.47701 138.504 7.52528 138.037 9.49563C137.692 10.9094 137.514 11.4771 137.369 11.5773C137.324 11.6107 137.091 12.0114 136.857 12.4679C136.612 12.9243 136.334 13.4252 136.222 13.581C135.365 14.7722 134.052 16.2861 132.938 17.377C131.781 18.5236 131.135 19.1025 128.964 20.9615C127.795 21.9745 127.718 22.1304 128.274 22.2751C128.797 22.4198 140.642 22.3975 141.176 22.2528C141.766 22.097 142.033 21.8632 142.033 21.4847C142.033 21.3289 142.089 21.1396 142.145 21.084C142.267 20.9615 142.813 17.9782 142.813 17.4884C142.801 17.2101 142.79 17.2101 142.601 17.5885C142.479 17.8 142.412 18.0116 142.434 18.0449C142.456 18.0895 142.401 18.1451 142.312 18.1897C142.223 18.2231 142.145 18.3455 142.145 18.468C142.145 18.8353 140.775 19.8149 140.263 19.8149C140.208 19.8149 140.141 19.8595 140.119 19.9262C140.063 20.0932 137.391 20.2602 134.564 20.2602H131.903V19.9262C131.903 19.737 131.959 19.5923 132.048 19.5923C132.115 19.5923 132.348 19.4476 132.549 19.2806C132.749 19.1136 133.239 18.7017 133.651 18.3678C135.076 17.1878 137.302 15.1618 137.77 14.6274C138.026 14.3269 138.427 13.8705 138.671 13.6144C139.25 12.9911 140.497 11.1209 140.965 10.1747C141.31 9.47337 141.71 8.31565 141.744 7.90377C141.755 7.80358 141.8 7.68113 141.833 7.61434C141.9 7.51415 141.877 5.03173 141.811 4.89815C141.8 4.86476 141.788 4.79796 141.8 4.7423C141.811 4.69778 141.766 4.58646 141.71 4.51967C141.644 4.44174 141.577 4.2859 141.555 4.16344C141.51 3.87401 140.887 2.76082 140.653 2.57158C140.553 2.49366 140.475 2.38234 140.475 2.32668C140.475 2.19309 140.052 1.78121 139.918 1.78121C139.863 1.78121 139.807 1.73669 139.807 1.68103C139.807 1.62537 139.718 1.55858 139.618 1.52518C139.506 1.49179 139.239 1.3582 139.028 1.23575C137.77 0.512175 136.846 0.334064 134.653 0.345196C133.662 0.356329 132.604 0.411987 132.293 0.467648Z" fill="#D7291E"/>
<path d="M0.0448166 0.746067C1.14689 0.857388 1.67009 1.0355 1.99292 1.41398C2.17103 1.61436 2.34914 1.89265 2.38254 2.03737C2.41594 2.17095 2.42707 6.46787 2.41594 11.5774C2.38254 19.8262 2.36028 20.9171 2.1933 21.3179C1.8816 22.0971 1.69236 22.2195 0.824058 22.2529C0.401041 22.2641 0.0225526 22.2975 0.00028852 22.3309C-0.0219755 22.3531 1.24707 22.3754 2.83895 22.3754C4.4197 22.3754 6.04497 22.431 6.44573 22.4978C7.49214 22.6759 12.1119 22.6759 13.1249 22.4978C14.0489 22.342 15.1176 22.0971 15.6296 21.9078C16.4645 21.6184 17.9562 20.9171 18.0008 20.7947C18.023 20.7501 18.1009 20.7056 18.1677 20.6945C18.2457 20.6945 18.524 20.5164 18.8023 20.3049C19.0806 20.1045 19.4257 19.8373 19.5815 19.7371C20.0157 19.4366 20.7838 18.5683 20.9285 18.2232C20.9953 18.0562 21.1066 17.9226 21.1623 17.9226C21.2179 17.9226 21.3181 17.7668 21.3738 17.5887C21.4406 17.3994 21.5407 17.2547 21.5964 17.2547C21.6409 17.2547 21.6632 17.1768 21.6298 17.0877C21.5853 16.9875 21.6298 16.9207 21.7411 16.9207C21.8413 16.9207 21.9304 16.8428 21.9304 16.7538C21.9526 16.5089 21.9638 16.4866 22.2866 15.7964C22.4536 15.4625 22.7096 14.6832 22.8654 14.071C23.1215 13.1248 23.1549 12.724 23.166 11.2435C23.166 9.10614 22.9879 8.31577 22.0194 6.15618C21.7745 5.62185 20.8283 4.31941 20.3607 3.88527C19.793 3.35094 19.0583 2.78321 18.947 2.78321C18.8913 2.78321 18.7466 2.68302 18.6353 2.56057C18.524 2.43812 18.3792 2.33793 18.3013 2.33793C18.2234 2.33793 18.0564 2.23775 17.9117 2.11529C17.767 1.99284 17.5221 1.85926 17.3662 1.82586C17.2104 1.79247 16.754 1.64775 16.3532 1.50304C14.483 0.835123 13.3142 0.746067 6.00045 0.723804C2.53839 0.723804 -0.133296 0.723804 0.0448166 0.746067ZM10.8317 1.89265C10.9542 1.93718 11.3661 2.03737 11.7334 2.11529C12.3791 2.24888 12.9246 2.41586 13.6259 2.72755C14.6055 3.16169 15.0174 3.3732 15.0174 3.45112C15.0174 3.49565 15.1398 3.57358 15.2957 3.60697C15.4515 3.6515 15.574 3.72942 15.574 3.78508C15.574 3.85187 15.6408 3.8964 15.7298 3.8964C15.8189 3.8964 15.9079 3.9298 15.9302 3.97433C15.9525 4.02998 16.2642 4.34168 16.6315 4.67563C17.01 5.00959 17.3106 5.33242 17.3217 5.38808C17.3328 5.44374 17.3774 5.52166 17.433 5.55506C17.6891 5.7443 18.6464 7.53654 19.0138 8.51615C19.3032 9.29538 19.4924 10.8984 19.4813 12.468C19.4702 14.6387 19.2141 15.9745 18.5685 17.3104C17.9451 18.6128 17.3774 19.2585 16.164 20.0599C15.7744 20.316 15.4627 20.5609 15.4627 20.6165C15.4627 20.6611 15.3625 20.7056 15.24 20.7056C15.1176 20.7056 14.8281 20.8058 14.5944 20.9282C13.7483 21.3735 11.5108 21.6407 9.56269 21.5294C7.67025 21.418 6.66837 20.9728 6.21195 20.0377C5.96705 19.5367 5.96705 19.5034 5.91139 11.3771C5.88913 6.89089 5.90026 2.95019 5.94479 2.61623C6.02271 1.98171 6.15629 1.85926 6.94667 1.73681C7.44761 1.65888 10.5534 1.78134 10.8317 1.89265Z" fill="#D7291E"/>
</svg>
