<svg width="143" height="21" viewBox="0 0 143 21" fill="none" xmlns="http://www.w3.org/2000/svg">
<path d="M55.1337 0.0174656C54.7867 0.0414219 54.485 0.0760288 54.1459 0.137253C54.0364 0.155888 53.8922 0.182507 53.8255 0.190493C53.3716 0.262365 52.2663 0.603096 51.7429 0.834688C49.9114 1.64659 48.3975 2.91634 47.3029 4.55611C46.6834 5.4878 46.1575 6.65906 45.9332 7.60406C45.8985 7.75845 45.8584 7.92616 45.8424 7.97673C45.7917 8.16307 45.7223 8.58632 45.6529 9.10807C45.6395 9.20922 45.6235 9.58722 45.6128 9.94659C45.5754 11.4772 45.8424 12.8641 46.4378 14.2457C46.7662 15.0096 47.4203 16.0824 47.8876 16.6281C48.9636 17.8819 49.9621 18.6752 51.3104 19.3433C51.6655 19.519 52.341 19.7985 52.5039 19.8384C52.5493 19.8491 52.5973 19.8651 52.6107 19.8757C52.6347 19.8917 52.7709 19.9316 53.2114 20.0514C53.4917 20.1259 53.5451 20.1392 53.7721 20.1818C54.2393 20.2723 54.4663 20.3043 54.9202 20.3416C55.8893 20.4241 55.7932 20.4241 56.9092 20.3256C57.275 20.2936 57.9852 20.1685 58.311 20.0807C58.391 20.0567 58.5352 20.0195 58.6313 19.9982C58.7915 19.9582 58.885 19.9289 59.0185 19.8757C59.0478 19.8651 59.1493 19.8278 59.2454 19.7959C59.7554 19.6228 60.5377 19.2608 60.9622 19.0026C61.061 18.9414 61.1464 18.8908 61.1517 18.8908C61.1838 18.8908 61.926 18.3797 62.0889 18.2492C62.5241 17.8952 62.7136 17.7248 63.0634 17.3761C63.6428 16.7958 64.0646 16.2581 64.6226 15.3797C64.7802 15.1348 65.1913 14.2989 65.3061 13.9928C65.3355 13.9129 65.3729 13.8224 65.3862 13.7931C65.5197 13.5003 65.752 12.6458 65.8695 12.0282C66.0243 11.1977 66.0671 9.9945 65.9736 9.04152C65.9229 8.53841 65.6612 7.31391 65.5464 7.05836C65.5331 7.02908 65.493 6.91461 65.4583 6.80547C65.1112 5.75932 64.3823 4.4869 63.6187 3.60313C63.1488 3.06009 62.727 2.65281 62.1823 2.21358C62.1156 2.16035 62.0382 2.09646 62.0088 2.0725C61.902 1.97667 61.0156 1.40169 60.7673 1.26859C59.6779 0.669645 58.586 0.304956 57.2964 0.107971C56.6743 0.0121403 55.7692 -0.0251274 55.1337 0.0174656ZM56.7891 3.50197C57.1442 3.55787 57.6408 3.68033 57.8838 3.77083C57.9639 3.80278 58.084 3.84537 58.1508 3.86933C58.9117 4.13552 59.9236 4.82231 60.5644 5.50909C61.6083 6.62978 62.2224 7.99004 62.3852 9.54729C62.4093 9.79486 62.4013 10.6946 62.3719 10.9448C62.2518 11.9351 62.0034 12.7124 61.5416 13.5402C61.2399 14.0833 60.9595 14.4639 60.5297 14.9058C60.4042 15.0336 60.2974 15.1454 60.2894 15.1587C60.252 15.2066 59.8568 15.5394 59.6726 15.6751C59.3629 15.9014 59.1279 16.0478 58.7648 16.2341C57.8224 16.7186 56.8772 16.9475 55.8172 16.9475C54.8294 16.9475 53.9403 16.7479 53.0646 16.3326C52.7976 16.2049 52.4051 15.9919 52.3837 15.9653C52.3757 15.9546 52.3223 15.9174 52.2636 15.8828C52.2048 15.8482 52.1461 15.8082 52.1301 15.7976C52.1167 15.7843 52.0206 15.7124 51.9165 15.6379C51.5854 15.3903 51.2677 15.0948 50.9446 14.7355C50.6456 14.4001 50.6349 14.3867 50.3813 14.0087C50.0823 13.5642 49.8153 13.0504 49.6738 12.6485C49.6497 12.5739 49.6177 12.4914 49.607 12.4621C49.5509 12.3184 49.4975 12.148 49.4468 11.9297C49.4148 11.7967 49.3774 11.6609 49.3667 11.6236C49.3026 11.4426 49.2332 10.7052 49.2332 10.1968C49.2332 9.05483 49.4789 8.014 49.9728 7.06102C50.0716 6.8667 50.0823 6.84806 50.2718 6.53395C50.8539 5.57298 51.8497 4.66259 52.907 4.13286C53.6439 3.76285 54.2794 3.57119 55.1337 3.46471C55.5476 3.41413 56.3405 3.4301 56.7891 3.50197Z" fill="#FF4350"/>
<path d="M0.301701 0.499269C0.181555 0.523228 0.106797 0.581791 0.0507285 0.693594C0 0.797409 0 0.978422 0 10.1915V19.5855L0.0533984 19.692C0.0854375 19.7506 0.146846 19.8225 0.194904 19.8491C0.277672 19.8996 0.33908 19.9023 1.8289 19.9023C3.37478 19.9023 3.37745 19.9023 3.55366 19.8411C3.75658 19.7692 3.89541 19.6654 4.04493 19.4737C4.21047 19.2634 4.83256 18.4835 4.88062 18.4249C4.90731 18.3956 4.97406 18.3131 5.0328 18.2386C5.09154 18.1667 5.16096 18.0815 5.18499 18.0522C5.20902 18.023 5.40125 17.7834 5.6095 17.5199C6.38645 16.5456 7.14204 15.6032 7.16874 15.574C7.18209 15.5553 7.2435 15.4808 7.30223 15.4036C7.36097 15.3264 7.45175 15.2119 7.50248 15.1507C7.55321 15.0868 7.62529 14.9963 7.66267 14.9484C7.70005 14.9005 7.7668 14.818 7.80952 14.7647C7.85491 14.7088 7.927 14.621 7.96971 14.5651C8.0151 14.5118 8.11656 14.3841 8.19666 14.2856C8.27675 14.1871 8.37287 14.0673 8.41025 14.0194C8.44763 13.9715 8.51972 13.881 8.57045 13.8197C8.62117 13.7585 8.69593 13.6653 8.73598 13.6174C8.77603 13.5668 8.93089 13.3699 9.08307 13.1809C9.87871 12.1853 10.4741 11.4453 10.5088 11.4C10.5809 11.3148 11.1683 10.5828 11.3205 10.3858C11.4006 10.2846 11.486 10.1808 11.5074 10.1569C11.5287 10.1329 11.5955 10.0504 11.6542 9.97319C11.7129 9.896 11.7744 9.82146 11.7877 9.80283C11.8037 9.78686 11.8758 9.69901 11.9479 9.60584C12.1054 9.40619 12.3484 9.10539 12.4098 9.0282C12.4365 8.99891 12.5219 8.88977 12.602 8.78862C12.6821 8.68746 12.7676 8.57832 12.7943 8.54904C12.8824 8.44256 13.0185 8.27486 13.096 8.17637C13.2134 8.02464 15.3147 5.39994 15.4215 5.26951C15.4722 5.20562 15.6885 4.93676 15.902 4.67056C16.1156 4.40171 16.3266 4.14083 16.3666 4.09026C16.7297 3.63506 17.2664 2.96957 17.3224 2.89503C17.4319 2.75928 17.8751 2.20559 18.0086 2.04055C18.5319 1.39103 19.0098 0.778776 19.0232 0.738846C19.0445 0.672297 18.9965 0.557833 18.9324 0.523228C18.8657 0.488623 14.9622 0.48596 14.8101 0.520565C14.6499 0.557833 14.4256 0.709564 14.3028 0.863958C14.1799 1.02102 13.096 2.37329 12.9812 2.51704C12.8343 2.69805 12.7462 2.80719 12.6688 2.90568C12.6261 2.96425 12.5486 3.05742 12.5006 3.11598C12.3991 3.24109 12.3964 3.24375 12.2015 3.49132C12.1214 3.59513 12.0494 3.68298 12.0413 3.69096C12.0333 3.69895 11.9612 3.78679 11.8811 3.89061C11.8011 3.99176 11.7156 4.1009 11.6889 4.13019C11.6382 4.19141 11.4646 4.40437 11.4193 4.46293C11.4006 4.48423 11.3205 4.58804 11.2404 4.6892C11.1603 4.79301 11.0882 4.88086 11.0802 4.88885C11.0722 4.89683 10.8692 5.14706 10.629 5.44786C10.3913 5.74866 10.1751 6.01752 10.151 6.0468C10.1243 6.07608 10.0496 6.17191 9.97749 6.25976C9.90808 6.3476 9.76123 6.53394 9.64909 6.67236C9.53696 6.81078 9.32603 7.07432 9.17919 7.25799C9.03501 7.44167 8.83744 7.68657 8.74132 7.80369C8.64787 7.92082 8.43161 8.18968 8.26074 8.40264C8.09253 8.61559 7.93233 8.81258 7.90831 8.84186C7.88428 8.87114 7.79617 8.98028 7.71607 9.08144C7.63597 9.18525 7.55855 9.28108 7.54253 9.29705C7.52918 9.31303 7.41971 9.44879 7.30223 9.60052C7.18476 9.74959 7.05393 9.91729 7.00854 9.97319C6.90442 10.0983 6.84034 10.1782 6.36776 10.7718C6.14883 11.0433 5.94057 11.3015 5.90319 11.3468C5.86582 11.392 5.77504 11.5065 5.70028 11.5997C5.62819 11.6928 5.55077 11.7887 5.53475 11.8099C5.51606 11.8312 5.41727 11.9564 5.31314 12.0895C5.20902 12.2199 5.08887 12.3716 5.04882 12.4222C4.85392 12.6644 4.49081 13.117 4.41872 13.2075C4.376 13.266 4.30391 13.3539 4.25852 13.4071C4.21581 13.463 4.14372 13.5509 4.09833 13.6068C4.05561 13.66 3.98352 13.7505 3.93813 13.8064C3.89541 13.8597 3.82333 13.9502 3.78061 14.0034C3.73789 14.0566 3.6925 14.0966 3.67915 14.0939C3.66847 14.0886 3.65779 11.195 3.65779 7.439C3.65779 1.43628 3.65512 0.781437 3.61507 0.685608C3.53765 0.491283 3.5857 0.496609 1.88496 0.488623C1.05462 0.48596 0.34175 0.491283 0.301701 0.499269Z" fill="#FF4350"/>
<path d="M25.8506 0.512577C25.5783 0.544519 25.4688 0.579124 25.2312 0.696251C24.8921 0.866617 24.7132 1.04763 24.0644 1.8755C24.0377 1.91011 23.9736 1.98997 23.9229 2.05385C23.8722 2.11508 23.7814 2.22954 23.7227 2.30674C23.6639 2.38394 23.6025 2.45847 23.5892 2.4771C23.5731 2.49308 23.4957 2.58891 23.4156 2.69272C23.3355 2.79388 23.2634 2.88438 23.2554 2.89237C23.2394 2.90834 23.0685 3.1213 22.2542 4.14349C21.9311 4.54545 21.6615 4.88086 21.6535 4.88884C21.6455 4.89683 21.5734 4.98467 21.4933 5.08849C21.4132 5.18964 21.3277 5.29879 21.301 5.32807C21.277 5.35735 20.9887 5.71671 20.6629 6.12666C20.3345 6.5366 20.0595 6.87733 20.0515 6.88531C20.0435 6.8933 19.9714 6.98114 19.8913 7.08496C19.8112 7.18612 19.7258 7.29526 19.6991 7.32454C19.6751 7.35382 19.3867 7.71319 19.0583 8.12313C18.7326 8.53307 18.4442 8.89243 18.4175 8.92172C18.3615 8.99093 16.5646 11.235 16.4605 11.3707C16.3777 11.4772 16.2335 11.6529 16.1588 11.7434C16.1321 11.7727 16.028 11.9031 15.9265 12.0362C15.7743 12.2332 15.4192 12.6751 14.984 13.2181C14.7758 13.4737 14.7224 13.5429 14.5248 13.7931C14.4447 13.8969 14.3726 13.9848 14.3646 13.9928C14.3539 14.0007 14.2231 14.1605 14.0736 14.3521C13.7932 14.7062 13.6891 14.8339 13.5503 15.0043C13.5075 15.0575 13.4355 15.148 13.3901 15.2039C13.3474 15.2625 13.2753 15.3504 13.2299 15.4036C13.1872 15.4595 13.1177 15.542 13.0777 15.5926C12.9522 15.755 12.4156 16.4231 12.2607 16.6121C12.1592 16.7372 12.1566 16.7426 11.9617 16.9875C11.8816 17.0913 11.8095 17.1791 11.8015 17.1871C11.7935 17.1951 11.5905 17.4453 11.3503 17.7461C11.1126 18.0469 10.8964 18.3158 10.8723 18.3451C10.8456 18.3743 10.7709 18.4702 10.6988 18.558C10.6294 18.6459 10.4104 18.92 10.2129 19.1676C9.82039 19.6601 9.79636 19.716 9.91918 19.8358L9.98325 19.9023H11.9697C13.8947 19.9023 13.9614 19.8996 14.1136 19.8491C14.3272 19.7745 14.45 19.684 14.6129 19.4791C14.6877 19.3832 14.7571 19.298 14.7651 19.2901C14.7731 19.2821 14.8372 19.2049 14.9066 19.117C15.0374 18.952 15.9932 17.7541 16.6794 16.8943C16.8983 16.6228 17.1013 16.3725 17.136 16.3353C17.168 16.298 17.1947 16.2607 17.1947 16.2501C17.1947 16.2395 17.2161 16.2102 17.2428 16.1835C17.2695 16.1569 17.3869 16.0158 17.5017 15.8694C17.6192 15.723 17.7207 15.5979 17.7287 15.5899C17.7474 15.574 18.1879 15.0176 18.2894 14.8845C18.3668 14.7807 18.9889 14.0114 19.0103 13.9928C19.0183 13.9848 19.0663 13.9262 19.1171 13.8597C19.1678 13.7931 19.2452 13.6973 19.2906 13.644C19.3333 13.5908 19.4294 13.471 19.5042 13.3778C19.5763 13.2847 19.659 13.1835 19.6857 13.1542C19.7445 13.0903 19.6964 13.0451 20.145 13.6094C20.3052 13.8117 20.444 13.9848 20.452 13.9928C20.46 14.0007 20.5268 14.0833 20.5989 14.1764C20.6736 14.2696 20.7644 14.3841 20.8018 14.4293C20.8391 14.4746 21.0474 14.7328 21.2637 15.0043C21.4799 15.2758 21.6775 15.5207 21.7015 15.55C21.7282 15.5793 21.803 15.6751 21.8724 15.763C21.9445 15.8508 22.1367 16.0904 22.2996 16.298C22.4651 16.503 22.6307 16.7106 22.668 16.7585C22.7054 16.8064 22.7481 16.8597 22.7615 16.8757C22.7775 16.8943 22.8362 16.9662 22.895 17.0407C22.9537 17.1126 23.0205 17.1978 23.0445 17.227C23.0712 17.2563 23.218 17.4427 23.3756 17.6396C23.5331 17.8366 23.696 18.0416 23.736 18.0922C23.7761 18.1428 23.9336 18.3397 24.0858 18.5314C24.238 18.7204 24.3688 18.8828 24.3768 18.8908C24.3848 18.8988 24.4569 18.9866 24.537 19.0904C25.0256 19.7107 25.071 19.7532 25.3513 19.8464C25.5035 19.8996 25.5836 19.9023 27.0414 19.9023C28.6914 19.9023 28.7021 19.9023 28.7928 19.7639C28.8329 19.7053 28.8356 18.8189 28.8356 10.1968C28.8356 0.999716 28.8356 0.69359 28.7875 0.629704C28.6887 0.496605 28.6834 0.496605 27.3404 0.488619C26.5608 0.485956 25.9948 0.493942 25.8506 0.512577ZM25.2312 10.1861C25.2312 13.6068 25.2232 14.4719 25.1965 14.4719C25.1804 14.4719 25.1217 14.4187 25.071 14.3521C25.0202 14.2856 24.9108 14.1498 24.8307 14.0487C24.7506 13.9502 24.6491 13.8224 24.6037 13.7665C24.4195 13.5322 24.1552 13.2075 24.1365 13.1942C24.1258 13.1862 24.1071 13.1622 24.0938 13.1383C24.0804 13.1143 24.0324 13.0478 23.9843 12.9919C23.8935 12.8827 23.8321 12.8055 23.1326 11.9297C22.9003 11.6369 22.6894 11.3734 22.6654 11.3441C22.6413 11.3148 22.4625 11.0939 22.2702 10.8516C22.078 10.6094 21.8858 10.3672 21.8404 10.3139C21.7576 10.2128 21.7389 10.1489 21.787 10.1196C21.803 10.1116 21.9605 9.91995 22.1367 9.69901C22.3129 9.4754 22.4945 9.2518 22.5345 9.20122C22.5773 9.15064 22.7855 8.88711 22.9991 8.61559C23.2154 8.34407 23.4717 8.02197 23.5705 7.89952C23.8028 7.61203 23.8481 7.55613 24.1579 7.16748C24.27 7.02906 24.278 7.01841 24.4569 6.79215C24.537 6.68833 24.6091 6.60048 24.6171 6.5925C24.6411 6.56854 25.0336 6.07608 25.0977 5.98557C25.1324 5.94032 25.1778 5.90039 25.1965 5.90039C25.2258 5.90039 25.2312 6.66703 25.2312 10.1861Z" fill="#FF4350"/>
<path d="M33.5851 0.501925C33.5104 0.515234 33.441 0.549841 33.3876 0.603079L33.3075 0.682938L33.2994 10.1462C33.2941 20.5678 33.2808 19.7399 33.4596 19.8491C33.5477 19.9023 33.5825 19.9023 38.0092 19.9023C42.4199 19.9023 42.4733 19.9023 42.6281 19.8491C42.7136 19.8198 42.8311 19.7612 42.8871 19.724C42.9726 19.6654 43.3998 19.1649 43.6801 18.7976C43.8083 18.6326 43.907 18.5048 43.9204 18.4915C43.9284 18.4835 44.0005 18.393 44.0806 18.2918C44.1607 18.188 44.2328 18.1002 44.2408 18.0922C44.2488 18.0842 44.3209 17.9937 44.401 17.8925C44.4811 17.7887 44.5532 17.7009 44.5612 17.6929C44.5692 17.6849 44.6413 17.5944 44.7214 17.4932C44.8015 17.3894 44.8736 17.3016 44.8816 17.2936C44.8896 17.2856 44.9563 17.2057 45.0284 17.1126C45.1032 17.0194 45.1939 16.9049 45.234 16.8597C45.3168 16.7639 45.3328 16.6201 45.266 16.5349C45.226 16.4817 45.1913 16.4817 41.0769 16.4737L36.9252 16.4684L36.9199 8.57832L36.9118 0.6856L36.8344 0.605742C36.7917 0.560488 36.7196 0.517897 36.6742 0.509911C36.5461 0.485952 33.7133 0.480629 33.5851 0.501925Z" fill="#FF4350"/>
<path d="M69.6002 0.504576C69.5521 0.515224 69.48 0.563139 69.44 0.611055L69.3652 0.693575V10.1994C69.3679 19.2634 69.3679 19.7053 69.4133 19.7586C69.5361 19.905 69.5014 19.9023 71.1754 19.9023H72.7213L72.8121 19.8411C72.8602 19.8091 72.9162 19.7506 72.9349 19.716C72.9616 19.6627 72.9696 18.0256 72.9696 11.8046C72.9696 7.12222 72.9803 3.95448 72.9937 3.9465C73.0364 3.91721 81.3665 3.92786 81.3745 3.95448C81.3825 3.97578 81.1423 4.28989 80.8779 4.60932C80.8512 4.63861 80.7658 4.74775 80.6857 4.8489C80.6056 4.95006 80.5202 5.0592 80.4935 5.08848C80.4694 5.11776 80.2532 5.38662 80.0155 5.68742C79.7753 5.98822 79.5723 6.23845 79.5643 6.24643C79.5563 6.25442 79.4896 6.33694 79.4175 6.42745C79.3427 6.52061 79.2172 6.68033 79.1371 6.77882C79.057 6.87732 78.9075 7.06632 78.8034 7.19409C78.7019 7.32453 78.6112 7.43633 78.6032 7.44432C78.5951 7.4523 78.4643 7.61202 78.3121 7.80368C78.0024 8.19233 77.9036 8.31478 77.7888 8.45586C77.7461 8.5091 77.674 8.59961 77.6286 8.65817C77.4951 8.82854 77.108 9.31302 77.0146 9.42748C76.9638 9.48604 76.7262 9.78418 76.4806 10.093C76.2349 10.3991 76.016 10.6759 75.992 10.7052C75.7036 11.046 75.6289 11.2083 75.6903 11.3627C75.7143 11.424 75.9519 11.7434 76.1522 11.983C76.1869 12.0282 76.8277 12.8241 77.076 13.1383C77.116 13.1862 77.4044 13.5455 77.7167 13.9368C78.0318 14.3255 78.3201 14.6849 78.3575 14.7354C78.3976 14.786 78.467 14.8712 78.5097 14.9244C78.6245 15.0655 78.7233 15.188 79.033 15.5766C79.1852 15.7656 79.316 15.928 79.324 15.936C79.332 15.944 79.4041 16.0318 79.4842 16.1356C79.6845 16.3885 79.7566 16.4817 79.9435 16.7106C79.9835 16.7612 80.2745 17.1232 80.5896 17.5199C80.9073 17.9138 81.241 18.3317 81.3318 18.4462C81.5454 18.7097 81.6682 18.8668 81.7083 18.9174C81.9299 19.2022 82.2743 19.6122 82.3357 19.6681C82.3811 19.708 82.4559 19.7586 82.5012 19.7825C82.7335 19.9023 82.7309 19.9023 84.8161 19.9023H86.7971L86.8505 19.8331C86.9627 19.692 86.9226 19.6095 86.4954 19.0904C86.434 19.0185 86.378 18.9467 86.3673 18.9307C86.3566 18.9174 86.3085 18.8562 86.2578 18.7976C86.2098 18.739 86.1457 18.6592 86.1163 18.6219C86.0763 18.566 85.593 17.9617 85.1284 17.3868C85.0937 17.3415 84.9789 17.1978 84.8748 17.0673C84.7733 16.9342 84.6105 16.7319 84.5144 16.6148C84.4209 16.4977 84.2821 16.3246 84.2073 16.2288C84.1326 16.133 84.0445 16.0265 84.0124 15.9892C83.983 15.952 83.8896 15.8375 83.8095 15.7363C83.7294 15.6325 83.6573 15.5447 83.6493 15.5367C83.6333 15.5207 83.4117 15.2439 82.8083 14.4852C82.576 14.1924 82.3784 13.9475 82.3677 13.9395C82.3597 13.9315 82.2903 13.8437 82.2102 13.7425C82.1328 13.6414 82.0474 13.5349 82.0207 13.5029C81.6976 13.117 80.2318 11.2696 80.2318 11.2483C80.2318 11.2216 80.3359 11.0752 80.4374 10.9581C80.5068 10.8756 80.683 10.6573 81.0728 10.1702C81.2944 9.89332 81.492 9.6431 81.5187 9.61382C81.5588 9.5659 81.6842 9.40885 81.9005 9.132C81.9459 9.0761 82.018 8.98826 82.0607 8.93502C82.1061 8.87912 82.1782 8.79127 82.2209 8.73537C82.2663 8.67681 82.341 8.58364 82.3891 8.52507C82.5253 8.36003 82.5226 8.36003 82.819 7.99002C82.9685 7.79836 83.1287 7.60137 83.1714 7.55079C83.2435 7.46029 83.3343 7.35115 83.5025 7.13819C83.5479 7.08495 83.6199 6.99444 83.6627 6.93854C83.708 6.8853 83.7775 6.7948 83.8229 6.7389C83.9083 6.62976 84.3488 6.08139 84.4209 5.99355C84.4449 5.96426 84.5304 5.85512 84.6105 5.75397C84.6906 5.65015 84.7733 5.55166 84.792 5.53036C84.8615 5.45849 84.9496 5.30144 84.9923 5.171C85.0323 5.05121 85.0377 4.82494 85.0377 2.8897C85.0377 1.30317 85.0297 0.720196 85.0056 0.669619C84.9896 0.632351 84.9362 0.579111 84.8908 0.549829C84.8054 0.49659 84.7199 0.49659 77.2442 0.488604C73.0871 0.485943 69.6456 0.493929 69.6002 0.504576Z" fill="#FF4350"/>
<path d="M90.277 0.499239C90.1595 0.523195 90.0847 0.571112 90.042 0.656294C90.0073 0.725506 90.002 1.80626 90.002 10.1914C90.002 17.7035 90.01 19.6627 90.0367 19.716C90.0554 19.7506 90.1114 19.8091 90.1595 19.8411L90.2503 19.9023H91.7855C93.2379 19.9023 93.3287 19.8996 93.4969 19.8491C93.7051 19.7878 93.86 19.668 94.0389 19.4364C94.1083 19.3486 94.1937 19.2395 94.2284 19.1969C94.3246 19.0797 96.2282 16.7026 96.2896 16.6228C96.319 16.5855 96.4872 16.3752 96.6634 16.1596C96.8369 15.9413 97.0959 15.6192 97.2374 15.4435C97.3763 15.2678 97.4964 15.1187 97.5044 15.1108C97.5124 15.1028 97.5845 15.0123 97.6646 14.9111C97.7447 14.8073 97.8168 14.7194 97.8248 14.7115C97.8328 14.7035 97.9236 14.5917 98.0251 14.4639C98.3561 14.046 98.4736 13.8996 98.7353 13.5775C98.8741 13.4044 99.0129 13.2261 99.0396 13.1862C99.0663 13.1462 99.101 13.1143 99.1197 13.1196C99.1384 13.1249 99.312 13.3246 99.5042 13.5668C99.6964 13.8091 99.87 14.0247 99.8887 14.046C99.9047 14.0699 99.9688 14.1471 100.028 14.219C100.084 14.2935 100.14 14.3574 100.148 14.3654C100.166 14.3814 100.391 14.6635 100.495 14.802C100.532 14.8525 100.844 15.2439 101.189 15.6724C101.536 16.1037 101.891 16.5456 101.977 16.6547C102.065 16.7638 102.155 16.8783 102.179 16.9076C102.228 16.9635 102.839 17.7301 103.05 17.999C103.119 18.0868 103.183 18.164 103.191 18.172C103.199 18.18 103.271 18.2678 103.352 18.3717C103.432 18.4728 103.504 18.5633 103.512 18.5713C103.52 18.5793 103.592 18.6671 103.672 18.771C103.752 18.8721 103.824 18.9626 103.832 18.9706C103.84 18.9786 103.928 19.0877 104.027 19.2128C104.385 19.6734 104.51 19.7772 104.823 19.873C104.887 19.8943 105.533 19.9023 106.873 19.9023C109.03 19.9023 108.966 19.9076 108.99 19.7426C108.998 19.6973 108.988 19.6334 108.972 19.5988C108.945 19.5509 108.638 19.1569 108.43 18.9041C108.403 18.8748 108.318 18.7656 108.238 18.6645C108.157 18.5607 108.085 18.4728 108.077 18.4648C108.069 18.4568 107.979 18.345 107.877 18.2146C107.773 18.0868 107.623 17.8978 107.543 17.7993C107.463 17.7008 107.338 17.5411 107.263 17.4506C107.191 17.3575 107.108 17.2563 107.084 17.227C107.06 17.1977 106.916 17.0167 106.766 16.8277C106.614 16.6361 106.483 16.4763 106.475 16.4684C106.467 16.4604 106.395 16.3725 106.315 16.2687C106.12 16.0238 106.118 16.0185 106.016 15.8934C105.885 15.731 105.787 15.6112 105.485 15.2305C105.333 15.0389 105.202 14.8792 105.194 14.8712C105.186 14.8632 105.114 14.7753 105.034 14.6715C104.839 14.4266 104.836 14.4213 104.735 14.2962C104.593 14.1232 104.505 14.0114 104.043 13.4337C103.805 13.1329 103.603 12.8827 103.592 12.8747C103.584 12.8667 103.512 12.7762 103.432 12.6751C103.352 12.5712 103.274 12.4754 103.258 12.4594C103.245 12.4408 103.183 12.3663 103.125 12.2891C103.066 12.2119 102.98 12.1054 102.935 12.0522C102.89 11.9989 102.74 11.8126 102.604 11.6369C102.465 11.4612 102.292 11.2429 102.217 11.1551C102.145 11.0646 102.035 10.9288 101.977 10.8543C101.918 10.7771 101.846 10.6866 101.816 10.652C101.787 10.62 101.683 10.4923 101.587 10.3698C101.491 10.2473 101.29 9.99712 101.146 9.81611C101.002 9.6351 100.828 9.41682 100.762 9.3343C100.695 9.25177 100.604 9.13465 100.556 9.07875C100.511 9.02285 100.345 8.81255 100.188 8.61557C100.03 8.41858 99.8833 8.23224 99.8593 8.20296C99.8326 8.17368 99.7472 8.06454 99.6671 7.96338C99.587 7.85957 99.5149 7.77172 99.5069 7.76374C99.4989 7.75575 99.368 7.59337 99.2158 7.40437C99.0663 7.21271 98.9222 7.03436 98.8981 7.00508C98.8741 6.9758 98.786 6.86666 98.7059 6.7655C98.6258 6.66168 98.5537 6.57384 98.5457 6.56585C98.5377 6.55787 98.4656 6.46736 98.3855 6.36621C98.3054 6.26239 98.2333 6.17455 98.2253 6.16656C98.2173 6.15857 98.1452 6.06807 98.0651 5.96691C97.985 5.8631 97.9129 5.77525 97.9049 5.76726C97.8969 5.75928 97.694 5.50905 97.4537 5.20825C97.2161 4.90745 96.9998 4.63859 96.9758 4.60931C96.9491 4.58003 96.8636 4.47089 96.7836 4.36973C96.7035 4.26592 96.6314 4.17807 96.6234 4.17009C96.6153 4.1621 96.3457 3.82669 96.0226 3.42474C95.0908 2.25613 95.0348 2.18692 95.0214 2.17361C95.0134 2.16563 94.9413 2.07512 94.8612 1.97397C94.7811 1.87015 94.709 1.7823 94.701 1.77432C94.693 1.76633 94.6209 1.67583 94.5408 1.57467C94.4607 1.47086 94.3886 1.38301 94.3806 1.37502C94.3699 1.36704 94.3005 1.27653 94.2204 1.17538C93.868 0.709534 93.7078 0.573774 93.4648 0.523195C93.318 0.493914 90.4105 0.469957 90.277 0.499239ZM93.8066 6.0654C93.8787 6.15857 93.9561 6.2544 93.9775 6.27836C94.0015 6.30498 94.0656 6.38218 94.1216 6.45139C94.175 6.5206 94.5942 7.04501 95.0508 7.61733C95.5073 8.18699 96.0627 8.88176 96.2843 9.16127C96.5059 9.43811 96.6954 9.67237 96.7035 9.68035C96.7115 9.68834 96.7836 9.77618 96.8636 9.88C96.9437 9.98115 97.0319 10.0903 97.0586 10.1196C97.0826 10.1462 97.0986 10.1861 97.0933 10.2048C97.0853 10.2207 96.9331 10.4177 96.7515 10.6387C96.57 10.8596 96.3991 11.0752 96.3697 11.1151C96.319 11.1817 95.4059 12.321 95.3098 12.4355C95.2857 12.4648 95.1362 12.6511 94.9814 12.8481C94.8238 13.0451 94.661 13.25 94.6209 13.3006C94.5782 13.3512 94.434 13.5322 94.3005 13.6999C94.1644 13.8676 94.0255 14.0406 93.9881 14.0859C93.9534 14.1285 93.8733 14.235 93.8119 14.3175C93.7505 14.4 93.6784 14.4692 93.6544 14.4692C93.609 14.4719 93.6063 14.2509 93.6063 10.2048C93.6063 7.85691 93.6144 5.92698 93.625 5.919C93.6571 5.88439 93.6784 5.90036 93.8066 6.0654Z" fill="#FF4350"/>
<path d="M106.478 0.504591C106.401 0.520563 106.35 0.552507 106.302 0.613731L106.235 0.701576L106.241 5.41059L106.249 10.1196L106.31 10.2474C106.361 10.3512 106.537 10.5908 106.764 10.8649C106.788 10.8942 106.876 11.0034 106.956 11.1045C107.036 11.2083 107.108 11.2962 107.116 11.3042C107.132 11.3175 107.6 11.9031 107.744 12.0894C107.789 12.1454 107.853 12.2279 107.893 12.2731C107.931 12.3184 107.984 12.3876 108.014 12.4249C108.04 12.4648 108.208 12.6724 108.385 12.8907C108.561 13.109 108.718 13.306 108.737 13.3273C108.753 13.3486 108.809 13.4151 108.857 13.4763C108.905 13.5349 108.983 13.6281 109.025 13.6866C109.071 13.7425 109.143 13.8304 109.186 13.8863C109.231 13.9395 109.303 14.03 109.346 14.0859C109.493 14.2776 109.538 14.3122 109.64 14.3122C109.698 14.3122 109.754 14.2909 109.786 14.2589C109.84 14.2057 109.84 14.1711 109.84 10.2554C109.84 8.08053 109.85 6.29702 109.864 6.28903C109.888 6.27306 109.955 6.34494 110.107 6.53926C110.155 6.60581 110.238 6.70696 110.288 6.76553C110.336 6.82409 110.384 6.88531 110.395 6.89862C110.419 6.93323 110.617 7.18079 110.654 7.22338C110.667 7.23936 110.707 7.28727 110.74 7.32986C110.806 7.41504 111.263 7.99003 111.33 8.06989C111.354 8.09917 111.442 8.20831 111.522 8.30946C111.602 8.41328 111.674 8.50113 111.682 8.50911C111.69 8.5171 111.762 8.60494 111.842 8.70876C111.922 8.80991 111.994 8.90042 112.002 8.90841C112.01 8.91639 112.082 9.00424 112.163 9.10805C112.363 9.36094 112.325 9.31569 112.63 9.69368C112.675 9.74959 112.747 9.84009 112.79 9.89599C112.835 9.94923 112.926 10.0637 112.996 10.1515C113.065 10.2367 113.284 10.5082 113.484 10.7585C113.682 11.006 113.877 11.2509 113.919 11.3015C114.101 11.5278 114.16 11.5996 114.258 11.7301C114.317 11.8073 114.379 11.8818 114.392 11.9004C114.437 11.951 115.377 13.1143 115.433 13.1915C115.463 13.2288 115.607 13.4098 115.754 13.5935C115.9 13.7745 116.069 13.9848 116.127 14.0593C116.186 14.1365 116.384 14.3841 116.568 14.6103C116.752 14.8393 116.939 15.0708 116.982 15.1267C117.027 15.1826 117.099 15.2705 117.142 15.3237C117.187 15.3743 117.289 15.4994 117.369 15.6032C117.449 15.7044 117.521 15.7949 117.529 15.8029C117.537 15.8109 117.628 15.9227 117.729 16.0558C117.833 16.1862 117.935 16.3193 117.962 16.3486C118.047 16.4497 118.183 16.6201 118.263 16.7213C118.309 16.7798 118.383 16.873 118.432 16.9316C118.48 16.9928 118.536 17.0593 118.552 17.0806C118.57 17.1019 118.747 17.3229 118.944 17.5731C119.836 18.6911 120.183 19.1224 120.244 19.1969C120.279 19.2395 120.365 19.3486 120.434 19.4365C120.613 19.6681 120.768 19.7878 120.976 19.8491C121.144 19.8996 121.235 19.9023 122.679 19.9023C124.34 19.9023 124.295 19.905 124.415 19.7532L124.471 19.6814V10.2074C124.471 1.79032 124.466 0.725534 124.431 0.656322C124.345 0.491282 124.385 0.496605 122.671 0.496605C121.756 0.496605 121.085 0.507254 121.045 0.520563C121.011 0.533873 120.955 0.581789 120.923 0.62438L120.867 0.704239V7.40174C120.867 13.2341 120.861 14.0992 120.826 14.0992C120.808 14.0992 120.778 14.0833 120.768 14.062C120.746 14.0274 120.653 13.9076 120.506 13.7266C120.357 13.5429 120.263 13.4258 119.403 12.345C119.363 12.2971 119.289 12.2039 119.238 12.1427C119.187 12.0815 119.11 11.983 119.064 11.9297C119.022 11.8738 118.95 11.7833 118.904 11.7301C118.861 11.6742 118.776 11.5677 118.717 11.4905C118.624 11.3707 117.833 10.3805 117.612 10.1089C117.569 10.0557 117.334 9.76023 117.089 9.45411C116.843 9.14532 116.608 8.8525 116.568 8.80193C116.528 8.75135 116.37 8.5517 116.218 8.3627C116.066 8.17104 115.935 8.01132 115.927 8.00334C115.919 7.99535 115.847 7.90751 115.767 7.80369C115.687 7.70254 115.607 7.59872 115.588 7.57742C115.543 7.51886 115.369 7.3059 115.318 7.24468C115.292 7.2154 115.206 7.10626 115.126 7.0051C115.046 6.90395 114.958 6.79481 114.934 6.76553C114.883 6.7043 114.333 6.02018 114.146 5.7806C114.077 5.69276 114.013 5.61556 114.005 5.60757C113.997 5.59959 113.722 5.25886 113.393 4.84891C113.068 4.43897 112.779 4.07961 112.755 4.05032C112.729 4.02104 112.643 3.9119 112.563 3.81075C112.483 3.70693 112.411 3.61909 112.403 3.6111C112.395 3.60312 112.323 3.51527 112.243 3.41145C112.163 3.3103 112.077 3.20116 112.05 3.17188C111.986 3.09202 111.741 2.78589 111.589 2.59423C111.516 2.50106 111.45 2.4212 111.439 2.41322C111.431 2.40523 111.362 2.31473 111.284 2.21357C111.204 2.10975 111.132 2.02191 111.124 2.01392C111.113 2.00594 111.041 1.91543 110.961 1.81428C110.481 1.1967 110.101 0.738844 110.016 0.672295C109.96 0.632366 109.85 0.576464 109.773 0.547182C109.637 0.499268 109.522 0.496605 108.107 0.491282C107.271 0.485958 106.537 0.493944 106.478 0.504591Z" fill="#FF4350"/>
<path d="M133.536 0.496563C127.315 0.509872 127.262 0.509872 127.189 0.563112C127.149 0.592394 127.104 0.650957 127.088 0.693548C127.048 0.810675 127.051 3.61106 127.093 3.70955C127.139 3.81071 127.211 3.87193 127.326 3.90387C127.387 3.91985 128.34 3.93049 129.969 3.93049C131.371 3.93049 132.519 3.93316 132.524 3.93848C132.529 3.9438 132.54 7.48688 132.551 11.8126C132.569 19.5296 132.569 19.6787 132.62 19.7505C132.73 19.9049 132.687 19.9023 134.361 19.9023C136.102 19.9023 136.038 19.9103 136.142 19.7L136.195 19.5882L136.176 11.7593L136.158 3.93049L139.418 3.92517L142.675 3.91718L142.744 3.8533C142.822 3.77876 142.835 3.6643 142.774 3.59242C142.752 3.56581 142.576 3.34752 142.384 3.10529C142.192 2.86305 142.016 2.64211 141.992 2.61282C141.967 2.58354 141.879 2.4744 141.799 2.37325C141.719 2.27209 141.631 2.16295 141.607 2.13367C141.564 2.08043 141.065 1.46019 140.817 1.14874C140.747 1.0609 140.667 0.959743 140.638 0.922476C140.435 0.666927 140.232 0.541817 139.97 0.504549C139.882 0.4939 136.988 0.488577 133.536 0.496563Z" fill="#FF4350"/>
</svg>
