<svg width="1920" height="1077" viewBox="0 0 1920 1077" fill="none" xmlns="http://www.w3.org/2000/svg">
<g clip-path="url(#clip0_1733_3084)">
<line x1="-446" y1="117.012" x2="2265.85" y2="117.012" stroke="url(#paint0_linear_1733_3084)"/>
<line x1="-446" y1="258.254" x2="2265.85" y2="258.254" stroke="url(#paint1_linear_1733_3084)"/>
<line x1="-446" y1="399.496" x2="2265.85" y2="399.496" stroke="url(#paint2_linear_1733_3084)"/>
<line x1="-446" y1="540.738" x2="2265.85" y2="540.738" stroke="url(#paint3_linear_1733_3084)"/>
<line x1="-446" y1="681.98" x2="2265.85" y2="681.98" stroke="url(#paint4_linear_1733_3084)"/>
<line x1="-446" y1="823.221" x2="2265.85" y2="823.221" stroke="url(#paint5_linear_1733_3084)"/>
<line x1="-446" y1="964.463" x2="2265.85" y2="964.463" stroke="url(#paint6_linear_1733_3084)"/>
<line x1="-132.152" y1="1243.51" x2="30.1185" y2="-443.612" stroke="url(#paint7_linear_1733_3084)"/>
<line x1="23.2103" y1="1243.51" x2="185.481" y2="-443.612" stroke="url(#paint8_linear_1733_3084)"/>
<line x1="178.577" y1="1243.51" x2="340.848" y2="-443.612" stroke="url(#paint9_linear_1733_3084)"/>
<line x1="333.943" y1="1243.51" x2="496.213" y2="-443.612" stroke="url(#paint10_linear_1733_3084)"/>
<line x1="489.312" y1="1243.51" x2="651.582" y2="-443.612" stroke="url(#paint11_linear_1733_3084)"/>
<line x1="644.677" y1="1243.51" x2="806.948" y2="-443.612" stroke="url(#paint12_linear_1733_3084)"/>
<line x1="800.041" y1="1243.51" x2="962.312" y2="-443.612" stroke="url(#paint13_linear_1733_3084)"/>
<line x1="955.409" y1="1243.51" x2="1117.68" y2="-443.612" stroke="url(#paint14_linear_1733_3084)"/>
<line x1="1110.77" y1="1243.51" x2="1273.04" y2="-443.612" stroke="url(#paint15_linear_1733_3084)"/>
<line x1="1266.14" y1="1243.51" x2="1428.41" y2="-443.612" stroke="url(#paint16_linear_1733_3084)"/>
<line x1="1421.51" y1="1243.51" x2="1583.78" y2="-443.612" stroke="url(#paint17_linear_1733_3084)"/>
<line x1="1576.87" y1="1243.51" x2="1739.14" y2="-443.612" stroke="url(#paint18_linear_1733_3084)"/>
<line x1="1732.24" y1="1243.51" x2="1894.51" y2="-443.612" stroke="url(#paint19_linear_1733_3084)"/>
<line x1="1887.6" y1="1243.51" x2="2049.88" y2="-443.612" stroke="url(#paint20_linear_1733_3084)"/>
</g>
<defs>
<linearGradient id="paint0_linear_1733_3084" x1="909.923" y1="117.512" x2="909.923" y2="118.512" gradientUnits="userSpaceOnUse">
<stop stop-color="#242424"/>
<stop offset="1" stop-color="#9A9A9A"/>
</linearGradient>
<linearGradient id="paint1_linear_1733_3084" x1="909.923" y1="258.754" x2="909.923" y2="259.754" gradientUnits="userSpaceOnUse">
<stop stop-color="#242424"/>
<stop offset="1" stop-color="#9A9A9A"/>
</linearGradient>
<linearGradient id="paint2_linear_1733_3084" x1="909.923" y1="399.996" x2="909.923" y2="400.996" gradientUnits="userSpaceOnUse">
<stop stop-color="#242424"/>
<stop offset="1" stop-color="#9A9A9A"/>
</linearGradient>
<linearGradient id="paint3_linear_1733_3084" x1="909.923" y1="541.238" x2="909.923" y2="542.238" gradientUnits="userSpaceOnUse">
<stop stop-color="#242424"/>
<stop offset="1" stop-color="#9A9A9A"/>
</linearGradient>
<linearGradient id="paint4_linear_1733_3084" x1="909.923" y1="682.48" x2="909.923" y2="683.48" gradientUnits="userSpaceOnUse">
<stop stop-color="#242424"/>
<stop offset="1" stop-color="#9A9A9A"/>
</linearGradient>
<linearGradient id="paint5_linear_1733_3084" x1="909.923" y1="823.721" x2="909.923" y2="824.721" gradientUnits="userSpaceOnUse">
<stop stop-color="#242424"/>
<stop offset="1" stop-color="#9A9A9A"/>
</linearGradient>
<linearGradient id="paint6_linear_1733_3084" x1="909.923" y1="964.963" x2="909.923" y2="965.963" gradientUnits="userSpaceOnUse">
<stop stop-color="#242424"/>
<stop offset="1" stop-color="#9A9A9A"/>
</linearGradient>
<linearGradient id="paint7_linear_1733_3084" x1="-50.519" y1="399.995" x2="-49.5236" y2="400.09" gradientUnits="userSpaceOnUse">
<stop stop-color="#242424"/>
<stop offset="1" stop-color="#9A9A9A"/>
</linearGradient>
<linearGradient id="paint8_linear_1733_3084" x1="104.843" y1="399.995" x2="105.839" y2="400.09" gradientUnits="userSpaceOnUse">
<stop stop-color="#242424"/>
<stop offset="1" stop-color="#9A9A9A"/>
</linearGradient>
<linearGradient id="paint9_linear_1733_3084" x1="260.21" y1="399.995" x2="261.206" y2="400.09" gradientUnits="userSpaceOnUse">
<stop stop-color="#242424"/>
<stop offset="1" stop-color="#9A9A9A"/>
</linearGradient>
<linearGradient id="paint10_linear_1733_3084" x1="415.576" y1="399.995" x2="416.571" y2="400.09" gradientUnits="userSpaceOnUse">
<stop stop-color="#242424"/>
<stop offset="1" stop-color="#9A9A9A"/>
</linearGradient>
<linearGradient id="paint11_linear_1733_3084" x1="570.945" y1="399.995" x2="571.94" y2="400.09" gradientUnits="userSpaceOnUse">
<stop stop-color="#242424"/>
<stop offset="1" stop-color="#9A9A9A"/>
</linearGradient>
<linearGradient id="paint12_linear_1733_3084" x1="726.31" y1="399.995" x2="727.305" y2="400.09" gradientUnits="userSpaceOnUse">
<stop stop-color="#242424"/>
<stop offset="1" stop-color="#9A9A9A"/>
</linearGradient>
<linearGradient id="paint13_linear_1733_3084" x1="881.674" y1="399.995" x2="882.67" y2="400.09" gradientUnits="userSpaceOnUse">
<stop stop-color="#242424"/>
<stop offset="1" stop-color="#9A9A9A"/>
</linearGradient>
<linearGradient id="paint14_linear_1733_3084" x1="1037.04" y1="399.995" x2="1038.04" y2="400.09" gradientUnits="userSpaceOnUse">
<stop stop-color="#242424"/>
<stop offset="1" stop-color="#9A9A9A"/>
</linearGradient>
<linearGradient id="paint15_linear_1733_3084" x1="1192.41" y1="399.995" x2="1193.4" y2="400.09" gradientUnits="userSpaceOnUse">
<stop stop-color="#242424"/>
<stop offset="1" stop-color="#9A9A9A"/>
</linearGradient>
<linearGradient id="paint16_linear_1733_3084" x1="1347.77" y1="399.995" x2="1348.77" y2="400.09" gradientUnits="userSpaceOnUse">
<stop stop-color="#242424"/>
<stop offset="1" stop-color="#9A9A9A"/>
</linearGradient>
<linearGradient id="paint17_linear_1733_3084" x1="1503.14" y1="399.995" x2="1504.13" y2="400.09" gradientUnits="userSpaceOnUse">
<stop stop-color="#242424"/>
<stop offset="1" stop-color="#9A9A9A"/>
</linearGradient>
<linearGradient id="paint18_linear_1733_3084" x1="1658.51" y1="399.995" x2="1659.5" y2="400.09" gradientUnits="userSpaceOnUse">
<stop stop-color="#242424"/>
<stop offset="1" stop-color="#9A9A9A"/>
</linearGradient>
<linearGradient id="paint19_linear_1733_3084" x1="1813.87" y1="399.995" x2="1814.87" y2="400.09" gradientUnits="userSpaceOnUse">
<stop stop-color="#242424"/>
<stop offset="1" stop-color="#9A9A9A"/>
</linearGradient>
<linearGradient id="paint20_linear_1733_3084" x1="1969.24" y1="399.995" x2="1970.23" y2="400.09" gradientUnits="userSpaceOnUse">
<stop stop-color="#242424"/>
<stop offset="1" stop-color="#9A9A9A"/>
</linearGradient>
<clipPath id="clip0_1733_3084">
<rect width="2324" height="1077" fill="white" transform="translate(-202)"/>
</clipPath>
</defs>
</svg>
