<svg width="144" height="27" viewBox="0 0 144 27" fill="none" xmlns="http://www.w3.org/2000/svg">
<path d="M6.55312 23.625L8.38125 15.7219L2.25 10.4062L10.35 9.70312L13.5 2.25L16.65 9.70312L24.75 10.4062L18.6187 15.7219L20.4469 23.625L13.5 19.4344L6.55312 23.625Z" fill="#F1D927"/>
<path d="M35.8031 23.625L37.6312 15.7219L31.5 10.4062L39.6 9.70312L42.75 2.25L45.9 9.70312L54 10.4062L47.8687 15.7219L49.6969 23.625L42.75 19.4344L35.8031 23.625Z" fill="#F1D927"/>
<path d="M65.0531 23.625L66.8812 15.7219L60.75 10.4062L68.85 9.70312L72 2.25L75.15 9.70312L83.25 10.4062L77.1187 15.7219L78.9469 23.625L72 19.4344L65.0531 23.625Z" fill="#F1D927"/>
<path d="M94.3031 23.625L96.1312 15.7219L90 10.4062L98.1 9.70312L101.25 2.25L104.4 9.70312L112.5 10.4062L106.369 15.7219L108.197 23.625L101.25 19.4344L94.3031 23.625Z" fill="#F1D927"/>
<path d="M123.553 23.625L125.381 15.7219L119.25 10.4062L127.35 9.70312L130.5 2.25L133.65 9.70312L141.75 10.4062L135.619 15.7219L137.447 23.625L130.5 19.4344L123.553 23.625Z" fill="#F1D927"/>
</svg>
