<svg width="62" height="62" viewBox="0 0 62 62" fill="none" xmlns="http://www.w3.org/2000/svg">
<g clip-path="url(#clip0_1771_234)">
<path d="M31 5.70117C44.9647 5.70117 56.2987 17.0353 56.2988 31C56.2988 44.9648 44.9648 56.2988 31 56.2988C17.0353 56.2987 5.70117 44.9647 5.70117 31C5.70135 17.0354 17.0354 5.70135 31 5.70117ZM30.4658 27.8828H20.1328V34.1182H30.4658V42.624L42.0898 31L41.7119 30.6221L31.3779 20.2891L30.4658 19.377V27.8828Z" fill="white" fill-opacity="0.4" stroke="#F1D927" stroke-width="1.06897"/>
<g clip-path="url(#clip1_1771_234)">
<path d="M31.5 5.70117C45.4647 5.70117 56.7987 17.0353 56.7988 31C56.7988 44.9648 45.4648 56.2988 31.5 56.2988C17.5353 56.2987 6.20117 44.9647 6.20117 31C6.20135 17.0354 17.5354 5.70135 31.5 5.70117ZM30.9658 27.8828H20.6328V34.1182H30.9658V42.624L42.5898 31L42.2119 30.6221L31.8779 20.2891L30.9658 19.377V27.8828Z" fill="white" fill-opacity="0.8" stroke="#FFF6B5" stroke-width="1.06897"/>
</g>
</g>
<defs>
<clipPath id="clip0_1771_234">
<rect width="62" height="62" fill="white"/>
</clipPath>
<clipPath id="clip1_1771_234">
<rect width="62" height="62" fill="white" transform="translate(0.5)"/>
</clipPath>
</defs>
</svg>
