<svg width="34" height="36" viewBox="0 0 34 36" fill="none" xmlns="http://www.w3.org/2000/svg">
<path d="M16.7552 22.8114C19.5669 22.8114 21.8463 20.5321 21.8463 17.7203C21.8463 14.9086 19.5669 12.6292 16.7552 12.6292C13.9434 12.6292 11.6641 14.9086 11.6641 17.7203C11.6641 20.5321 13.9434 22.8114 16.7552 22.8114Z" stroke="#FF6C32" stroke-width="1.5"/>
<path d="M19.7453 1.00795C19.1225 0.75 18.3316 0.75 16.75 0.75C15.1684 0.75 14.3775 0.75 13.7547 1.00795C13.3427 1.17852 12.9682 1.42864 12.6529 1.744C12.3375 2.05935 12.0874 2.43377 11.9168 2.84584C11.7607 3.22428 11.6979 3.66721 11.6742 4.31039C11.6631 4.77526 11.5343 5.22973 11.2999 5.63129C11.0654 6.03285 10.7329 6.36837 10.3335 6.60648C9.92757 6.8335 9.4707 6.95382 9.00562 6.9562C8.54053 6.95857 8.08245 6.84292 7.67423 6.62006C7.10403 6.31799 6.69165 6.15168 6.28266 6.09737C5.39056 5.98006 4.48838 6.22178 3.77444 6.7694C3.24157 7.18178 2.84446 7.86569 2.05364 9.2352C1.26282 10.6047 0.865713 11.2886 0.779164 11.9589C0.720845 12.4009 0.750178 12.8501 0.865486 13.2808C0.980795 13.7114 1.17982 14.1151 1.45119 14.4689C1.70235 14.7947 2.05364 15.0679 2.59839 15.4107C3.40109 15.9147 3.91699 16.7734 3.91699 17.7204C3.91699 18.6673 3.40109 19.526 2.59839 20.0284C2.05364 20.3729 1.70066 20.6461 1.45119 20.9719C1.17982 21.3256 0.980795 21.7294 0.865486 22.16C0.750178 22.5907 0.720845 23.0398 0.779164 23.4818C0.86741 24.1505 1.26282 24.8361 2.05194 26.2056C2.84446 27.5751 3.23987 28.259 3.77444 28.6714C4.12816 28.9428 4.53189 29.1418 4.96254 29.2571C5.3932 29.3724 5.84236 29.4017 6.28436 29.3434C6.69165 29.2891 7.10403 29.1228 7.67423 28.8207C8.08245 28.5979 8.54053 28.4822 9.00562 28.4846C9.4707 28.487 9.92757 28.6073 10.3335 28.8343C11.1532 29.3095 11.6402 30.1835 11.6742 31.1304C11.6979 31.7753 11.759 32.2165 11.9168 32.5949C12.0874 33.007 12.3375 33.3814 12.6529 33.6968C12.9682 34.0121 13.3427 34.2623 13.7547 34.4328C14.3775 34.6908 15.1684 34.6908 16.75 34.6908C18.3316 34.6908 19.1225 34.6908 19.7453 34.4328C20.1573 34.2623 20.5318 34.0121 20.8471 33.6968C21.1625 33.3814 21.4126 33.007 21.5832 32.5949C21.7393 32.2165 21.8021 31.7753 21.8258 31.1304C21.8598 30.1835 22.3468 29.3078 23.1665 28.8343C23.5724 28.6073 24.0293 28.487 24.4944 28.4846C24.9595 28.4822 25.4175 28.5979 25.8258 28.8207C26.396 29.1228 26.8084 29.2891 27.2156 29.3434C27.6576 29.4017 28.1068 29.3724 28.5375 29.2571C28.9681 29.1418 29.3718 28.9428 29.7256 28.6714C30.2601 28.2607 30.6555 27.5751 31.4464 26.2056C32.2372 24.8361 32.6343 24.1522 32.7208 23.4818C32.7792 23.0398 32.7498 22.5907 32.6345 22.16C32.5192 21.7294 32.3202 21.3256 32.0488 20.9719C31.7976 20.6461 31.4464 20.3729 30.9016 20.0301C30.5044 19.7881 30.175 19.4492 29.9444 19.0453C29.7138 18.6413 29.5895 18.1855 29.583 17.7204C29.583 16.7734 30.0989 15.9147 30.9016 15.4124C31.4464 15.0679 31.7993 14.7947 32.0488 14.4689C32.3202 14.1151 32.5192 13.7114 32.6345 13.2808C32.7498 12.8501 32.7792 12.4009 32.7208 11.9589C32.6326 11.2903 32.2372 10.6047 31.4481 9.2352C30.6555 7.86569 30.2601 7.18178 29.7256 6.7694C29.3718 6.49803 28.9681 6.299 28.5375 6.18369C28.1068 6.06839 27.6576 6.03905 27.2156 6.09737C26.8084 6.15168 26.396 6.31799 25.8241 6.62006C25.4161 6.84261 24.9583 6.9581 24.4935 6.95573C24.0288 6.95335 23.5722 6.8332 23.1665 6.60648C22.7671 6.36837 22.4346 6.03285 22.2001 5.63129C21.9657 5.22973 21.8369 4.77526 21.8258 4.31039C21.8021 3.66551 21.741 3.22428 21.5832 2.84584C21.4126 2.43377 21.1625 2.05935 20.8471 1.744C20.5318 1.42864 20.1573 1.17852 19.7453 1.00795Z" stroke="#FF6C32" stroke-width="1.5"/>
</svg>
