<svg width="34" height="34" viewBox="0 0 34 34" fill="none" xmlns="http://www.w3.org/2000/svg">
<path d="M1 17C1 9.4576 1 5.6864 3.3424 3.3424C5.688 1 9.4576 1 17 1C24.5424 1 28.3136 1 30.656 3.3424C33 5.688 33 9.4576 33 17C33 24.5424 33 28.3136 30.656 30.656C28.3152 33 24.5424 33 17 33C9.4576 33 5.6864 33 3.3424 30.656C1 28.3152 1 24.5424 1 17Z" stroke="#FF6C32" stroke-width="2"/>
<path d="M9 20.2L11.8752 16.7504C13.0144 15.3824 13.584 14.6992 14.3328 14.6992C15.0832 14.6992 15.6528 15.3824 16.792 16.7504L17.208 17.2496C18.3472 18.6176 18.9168 19.3008 19.6672 19.3008C20.4176 19.3008 20.9856 18.6176 22.1248 17.2496L25 13.8" stroke="#FF6C32" stroke-width="2" stroke-linecap="round"/>
</svg>
