<svg width="266" height="43" viewBox="0 0 266 43" fill="none" xmlns="http://www.w3.org/2000/svg">
<path d="M186.838 0.269337C186.672 0.414364 186.32 1.0359 186.071 1.65745C185.822 2.27899 185.387 3.39776 185.077 4.14362C183.461 8.12148 182.735 10.0897 182.715 10.4212C182.715 10.6284 182.57 10.8355 182.404 10.8977C182.238 10.9806 182.093 11.2292 182.093 11.4778C182.093 11.7264 182.01 12.0165 181.907 12.1408C181.803 12.2444 181.534 12.8452 181.306 13.4667C180.726 15.0828 179.669 17.6932 178.985 19.2678C178.654 20.0137 178.322 20.8838 178.24 21.236C178.157 21.5675 177.949 22.0647 177.784 22.3134C177.618 22.5827 177.556 22.7899 177.639 22.7899C177.722 22.7899 177.68 22.9142 177.556 23.0592C177.432 23.225 177.39 23.4114 177.473 23.4736C177.535 23.5564 177.494 23.6186 177.369 23.6186C177.224 23.6186 177.121 23.7222 177.121 23.8465C177.121 23.9501 176.955 24.4473 176.748 24.9238C176.52 25.4003 176.147 26.3534 175.898 27.0371C175.629 27.7208 175.339 28.4666 175.235 28.6945C175.153 28.9224 174.738 29.9376 174.345 30.9735C173.972 31.9887 173.433 33.2939 173.164 33.874C172.915 34.4334 172.687 34.9514 172.687 35.0135C172.666 35.0757 172.604 35.2 172.521 35.3243C172.459 35.4279 172.148 36.1737 171.838 36.9817C171.506 37.769 171.195 38.4734 171.112 38.5356C171.05 38.5978 170.781 38.9707 170.553 39.3643C170.304 39.758 169.6 40.4002 168.999 40.7524C168.067 41.3118 167.673 41.4361 166.658 41.4361C165.664 41.4568 165.498 41.4983 165.809 41.664C166.036 41.8091 166.679 41.8505 167.466 41.7676C168.15 41.6847 170.988 41.6226 173.764 41.6019C178.467 41.5812 180.063 41.4983 177.556 41.4154C176.831 41.374 176.23 41.2289 175.816 40.9182C175.235 40.5453 175.153 40.3588 175.132 39.4679C175.111 38.577 175.836 35.9666 176.499 34.4956C176.603 34.2677 176.769 33.7497 176.872 33.3561L177.038 32.631H185.615H194.193L194.524 33.6669C194.711 34.2262 194.959 34.9307 195.104 35.2207C195.56 36.2359 196.782 39.4679 196.907 40.0273C197.093 40.7317 196.7 41.4361 196.119 41.4776C194.669 41.5812 203.661 41.7262 206.334 41.6226C208.095 41.5604 209.006 41.4983 208.343 41.4776C207.68 41.4568 206.852 41.3118 206.479 41.1461C205.629 40.7939 203.847 39.2193 203.847 38.8257C203.847 38.6599 203.785 38.5356 203.682 38.5356C203.454 38.5356 201.299 34.1019 201.05 33.0868C200.926 32.5895 200.968 32.5481 201.921 32.4238C202.853 32.2787 204.883 31.6986 205.816 31.2843C206.043 31.1807 206.976 31.0357 207.908 30.9735C211.057 30.7249 210.063 30.5384 205.153 30.4763C202.293 30.4556 200.139 30.352 199.994 30.2277C199.724 29.9998 199.227 28.8395 197.611 24.6545C197.031 23.1214 196.43 21.6711 196.306 21.4432C196.202 21.2153 196.078 20.9874 196.078 20.9252C196.037 20.8217 195.871 20.4073 195.166 18.7913C194.938 18.2526 194.731 17.7347 194.711 17.6518C194.69 17.5689 194.4 16.9059 194.068 16.2015C193.758 15.4764 193.488 14.772 193.488 14.627C193.488 14.3369 190.981 8.01789 190.277 6.50547C190.008 5.92537 189.614 4.99305 189.427 4.43367C188.93 2.94197 187.542 0 187.335 0C187.252 0 187.024 0.12431 186.838 0.269337ZM185.988 10.8355C186.113 10.9806 186.361 11.5607 186.548 12.1201C186.879 13.156 186.983 13.446 187.48 14.6062C187.625 14.9377 187.791 15.3935 187.832 15.6007C187.874 15.8286 188.039 16.1808 188.205 16.4294C188.371 16.678 188.516 17.1338 188.516 17.4446C188.516 17.7761 188.599 18.0247 188.702 18.0247C188.868 18.0247 189.821 20.6559 189.863 21.236C189.883 21.3396 190.008 21.6504 190.132 21.9197C190.277 22.1683 190.339 22.4791 190.277 22.5827C190.215 22.707 190.235 22.7899 190.339 22.7899C190.525 22.7899 190.836 23.5357 190.898 24.1365C190.919 24.2401 191.085 24.6959 191.271 25.1103C191.458 25.5454 191.769 26.4363 191.976 27.0785C192.183 27.7415 192.411 28.3009 192.494 28.3423C192.597 28.3837 192.659 28.6324 192.659 28.881C192.659 29.1296 192.763 29.4404 192.887 29.5647C193.074 29.7511 193.053 29.8755 192.846 30.0826C192.618 30.2898 191.106 30.352 185.615 30.3312C181.803 30.3105 178.612 30.2898 178.53 30.2691C178.322 30.2277 178.592 28.7981 179.006 27.8244C179.213 27.3686 179.317 26.9128 179.234 26.8299C179.151 26.7677 179.255 26.602 179.462 26.4984C179.648 26.3741 179.814 26.1048 179.814 25.8976C179.814 25.6697 179.959 25.1517 180.146 24.7167C180.56 23.7843 180.684 23.4321 181.161 22.0647C181.368 21.4846 181.617 20.946 181.7 20.8217C181.803 20.7181 181.886 20.5316 181.886 20.3866C181.886 20.2623 182.052 19.7858 182.238 19.3507C182.425 18.8949 182.611 18.3976 182.632 18.2112C182.632 18.0454 183.046 16.8852 183.523 15.6629C183.979 14.4405 184.372 13.2596 184.372 13.0524C184.372 12.8245 184.559 12.4516 184.787 12.2237C185.035 11.975 185.159 11.7057 185.097 11.6021C184.973 11.3949 185.408 10.5662 185.636 10.5662C185.719 10.5662 185.864 10.6905 185.988 10.8355Z" fill="#D7291E"/>
<path d="M76.5346 1.0156C73.7169 1.72001 70.6299 2.83879 70.6299 3.14956C70.6299 3.23243 70.4849 3.3153 70.3191 3.3153C69.9669 3.3153 69.1175 3.87469 67.1907 5.42855C63.4199 8.43267 60.9337 12.887 60.1464 18.0666C59.5456 21.9201 59.7942 25.0071 61.0166 28.9021C61.7003 31.0568 61.8039 31.264 63.2542 33.4601C64.663 35.594 66.1133 37.1893 67.3771 38.0388C67.8536 38.3495 68.4338 38.7846 68.6617 38.9711C69.2003 39.4269 71.6865 40.67 73.1161 41.2086C73.7376 41.4365 75.2708 41.8302 76.5139 42.0788C78.4821 42.4724 79.2073 42.5139 82.0042 42.4103C84.8841 42.3067 87.536 41.9338 88.7584 41.4573C88.9863 41.3537 89.6907 41.1258 90.3123 40.8979C92.0112 40.3385 94.0001 39.2197 95.3261 38.1009C95.9684 37.5415 96.5692 37.0857 96.6521 37.0857C96.8592 37.0857 97.8952 35.967 98.1645 35.449C98.3095 35.2004 98.5374 35.0139 98.6825 35.0139C98.8482 35.0139 99.014 34.8482 99.0968 34.641C99.159 34.4546 99.5941 33.7294 100.05 33.0457C100.858 31.8441 101.314 30.9532 102.163 29.0057C102.37 28.4877 102.64 27.8869 102.743 27.659C102.847 27.4311 102.992 26.8717 103.054 26.4159C103.22 25.4422 103.24 25.2972 103.468 24.7792C103.572 24.5513 103.634 23.0182 103.655 21.3607C103.655 17.3207 103.406 14.9381 102.909 14.358C102.785 14.213 102.764 14.0887 102.847 14.0887C102.93 14.0887 102.888 13.9644 102.764 13.7986C102.64 13.6329 102.536 13.4257 102.577 13.3428C102.619 13.1564 100.92 9.59288 100.423 8.80559C100.278 8.57769 100.029 8.30836 99.9048 8.22548C99.7598 8.14261 99.6355 7.93543 99.6355 7.81112C99.6355 7.6661 99.0347 6.9824 98.3095 6.31942C96.6106 4.74485 96.3827 4.55839 96.1341 4.55839C96.0305 4.55839 95.8855 4.41336 95.8233 4.2269C95.7612 4.06115 95.6162 3.95757 95.5126 4.01972C95.4297 4.08187 95.1811 3.95757 94.9739 3.72966C94.7667 3.50177 94.4974 3.3153 94.3938 3.3153C94.2695 3.3153 93.5029 2.98381 92.6742 2.56945C89.8358 1.18134 87.681 0.787701 82.3357 0.704826C78.7307 0.663391 77.7363 0.704826 76.5346 1.0156ZM82.9573 2.75592C84.6355 2.98381 88.862 4.72413 88.862 5.20065C88.862 5.30424 88.9863 5.38711 89.152 5.38711C89.9186 5.38711 93.1092 9.26139 94.1037 11.3953C94.7045 12.7213 95.3261 14.1301 95.3883 14.3373C95.4297 14.4409 95.4711 14.5238 95.4918 14.5445C95.5126 14.5859 95.5747 14.9796 95.6162 15.4354C95.6576 15.8912 95.7819 16.2848 95.9062 16.3262C96.0098 16.3677 96.072 16.4713 96.0305 16.5334C95.9891 16.6163 96.072 17.3207 96.2377 18.1287C96.4035 18.9989 96.507 20.8842 96.507 22.8939C96.4863 27.7005 95.8648 30.5388 93.9794 34.3924C93.5443 35.304 90.478 38.536 90.0637 38.536C89.9601 38.536 89.6079 38.7225 89.2971 38.9504C87.4531 40.2349 83.1852 40.5871 79.5388 39.7377C77.6534 39.3026 75.2915 38.0388 73.6341 36.5678C73.3026 36.257 72.826 35.8634 72.5981 35.6562C72.3702 35.4697 71.8523 34.8689 71.4586 34.3302C71.065 33.7709 70.5885 33.17 70.4227 32.9628C70.0705 32.5899 69.3868 31.2225 69.3868 30.9118C69.3868 30.8082 69.2211 30.4974 69.0139 30.2281C68.8067 29.9587 68.4752 29.1714 68.268 28.4877C68.0608 27.8041 67.7915 27.0168 67.6879 26.7267C67.2943 25.7115 66.9628 22.6453 66.9213 19.8069C66.8592 15.4768 67.3771 12.597 68.7653 9.63431C69.0346 9.05421 69.2625 8.55697 69.2625 8.49482C69.2832 8.43267 69.5525 8.0183 69.9048 7.56251C71.5001 5.40783 74.0691 3.62608 76.286 3.08741C76.8868 2.9631 77.6534 2.77663 77.9849 2.69376C78.565 2.54874 81.6106 2.59017 82.9573 2.75592Z" fill="#D7291E"/>
<path d="M119.274 1.05692C119.191 2.15498 119.15 2.40359 119.046 2.69365C118.549 4.10247 118.01 7.87316 118.321 7.87316C118.404 7.87316 118.57 7.52095 118.715 7.06516C119.005 6.07069 120.082 4.88976 121.056 4.4754C121.823 4.16463 123.501 4.0196 129.24 3.83314C131.104 3.77099 132.7 3.6674 132.783 3.62596C132.845 3.58452 133.031 3.62596 133.197 3.72955C133.466 3.89529 133.508 5.98782 133.466 18.8952C133.425 35.221 133.342 37.8108 132.824 39.6547C132.41 41.0842 131.912 41.4157 130.255 41.4571C129.385 41.4779 129.281 41.4986 129.778 41.6229C130.131 41.685 133.798 41.7058 137.962 41.6436C142.127 41.5815 145.006 41.4986 144.385 41.4779C141.754 41.3328 141.443 41.2085 140.801 40.1519C140.241 39.261 140.179 38.971 140.034 36.3191C139.889 34.2265 139.702 6.23643 139.806 4.41325C139.868 3.62596 140.593 3.52237 144.074 3.81242C144.882 3.87458 146.56 3.97817 147.824 4.04032C149.129 4.10247 150.559 4.28894 151.139 4.49612C152.299 4.88976 153.377 5.92567 153.625 6.89941C154.019 8.55686 154.081 8.45327 154.122 6.00854C154.164 4.57899 154.185 2.85939 154.205 2.1757C154.226 1.45057 154.143 0.953331 154.019 0.974049C149.999 1.63703 123.853 1.63703 121.077 0.953331C119.378 0.538967 119.316 0.538967 119.274 1.05692Z" fill="#D7291E"/>
<path d="M246.216 0.870464C244.642 1.16052 241.907 2.05139 241.161 2.50719L240.498 2.90083L240.602 5.44916C240.726 8.51543 240.913 10.1729 241.161 10.0278C241.265 9.96569 241.348 9.75851 241.348 9.57205C241.348 8.80548 242.28 6.38147 242.715 5.94639C242.984 5.69777 243.212 5.387 243.212 5.2627C243.212 4.95192 243.937 4.14392 244.227 4.14392C244.352 4.14392 244.455 4.06105 244.455 3.97817C244.455 3.87458 245.118 3.50166 245.947 3.12873C247.252 2.52791 247.646 2.44504 249.345 2.42432C250.65 2.4036 251.355 2.48647 251.582 2.67294C251.769 2.83868 251.914 2.90083 251.914 2.81796C251.914 2.67294 254.152 3.81243 254.607 4.18536C255.167 4.66187 256.265 6.38147 256.596 7.29306C257.674 10.1936 257.777 14.0057 256.907 17.6728C256.265 20.304 255.933 21.3606 255.664 21.5471C255.581 21.6092 255.146 22.3551 254.711 23.2045C254.255 24.054 253.737 24.9863 253.53 25.2763C251.935 27.4932 249.49 30.3108 247.418 32.3412C245.263 34.4752 244.062 35.5525 240.022 39.0124C237.846 40.8978 237.701 41.1878 238.737 41.4572C239.711 41.7265 261.755 41.6851 262.75 41.4157C263.848 41.1257 264.345 40.6906 264.345 39.9862C264.345 39.6961 264.449 39.3439 264.552 39.2403C264.78 39.0124 265.795 33.46 265.795 32.5484C265.774 32.0304 265.754 32.0304 265.402 32.7348C265.174 33.1285 265.049 33.5221 265.091 33.5843C265.132 33.6672 265.029 33.7708 264.863 33.8536C264.697 33.9158 264.552 34.1437 264.552 34.3716C264.552 35.0553 262.004 36.8785 261.051 36.8785C260.947 36.8785 260.823 36.9613 260.781 37.0856C260.678 37.3964 255.705 37.7072 250.443 37.7072H245.491V37.0856C245.491 36.7334 245.595 36.4641 245.761 36.4641C245.885 36.4641 246.32 36.1948 246.693 35.884C247.066 35.5732 247.977 34.8067 248.744 34.1851C251.396 31.989 255.54 28.2183 256.41 27.2238C256.886 26.6645 257.632 25.815 258.088 25.3385C259.165 24.1783 261.486 20.6977 262.356 18.9366C262.998 17.6314 263.744 15.4767 263.806 14.7101C263.827 14.5237 263.91 14.2958 263.972 14.1715C264.096 13.985 264.055 9.36487 263.931 9.11625C263.91 9.0541 263.889 8.92979 263.91 8.8262C263.931 8.74333 263.848 8.53615 263.744 8.41184C263.62 8.26682 263.495 7.97676 263.454 7.74886C263.371 7.21019 262.211 5.13839 261.776 4.78618C261.589 4.64115 261.444 4.43397 261.444 4.33038C261.444 4.08176 260.657 3.3152 260.408 3.3152C260.305 3.3152 260.201 3.23232 260.201 3.12873C260.201 3.02514 260.036 2.90084 259.849 2.83868C259.642 2.77653 259.145 2.52791 258.751 2.30001C256.41 0.953335 254.69 0.621845 250.609 0.642563C248.765 0.663284 246.797 0.766876 246.216 0.870464Z" fill="#D7291E"/>
<path d="M0.0834101 1.3886C2.13452 1.59578 3.10828 1.92727 3.70911 2.63168C4.0406 3.00461 4.3721 3.52256 4.43425 3.7919C4.49641 4.04051 4.51712 12.0377 4.49641 21.5473C4.43425 36.8994 4.39281 38.9297 4.08204 39.6756C3.50193 41.1258 3.14972 41.3537 1.53369 41.4159C0.746395 41.4366 0.0419735 41.4988 0.000536978 41.5609C-0.0408996 41.6024 2.32099 41.6438 5.2837 41.6438C8.2257 41.6438 11.2506 41.7474 11.9964 41.8717C13.9439 42.2032 22.542 42.2032 24.4274 41.8717C26.147 41.5816 28.136 41.1258 29.089 40.7736C30.6429 40.235 33.4191 38.9297 33.502 38.7018C33.5434 38.619 33.6885 38.5361 33.8128 38.5154C33.9578 38.5154 34.4758 38.1839 34.9937 37.7902C35.5117 37.4173 36.1539 36.9201 36.444 36.7336C37.252 36.1742 38.6816 34.5582 38.9509 33.916C39.0752 33.6052 39.2824 33.3566 39.386 33.3566C39.4896 33.3566 39.6761 33.0665 39.7796 32.735C39.904 32.3828 40.0904 32.1135 40.194 32.1135C40.2769 32.1135 40.3183 31.9685 40.2562 31.8027C40.1733 31.6163 40.2562 31.4919 40.4633 31.4919C40.6498 31.4919 40.8156 31.3469 40.8156 31.1812C40.857 30.7254 40.8777 30.6839 41.4785 29.3994C41.7893 28.7779 42.2658 27.3276 42.5559 26.1881C43.0324 24.4271 43.0946 23.6812 43.1153 20.9257C43.1153 16.9479 42.7838 15.4769 40.9813 11.4576C40.5255 10.4631 38.7645 8.0391 37.8943 7.23109C36.8376 6.23663 35.4702 5.18001 35.2631 5.18001C35.1595 5.18001 34.8901 4.99355 34.6829 4.76564C34.4758 4.53775 34.2064 4.35128 34.0614 4.35128C33.9164 4.35128 33.6056 4.16482 33.3363 3.93692C33.0669 3.70902 32.6111 3.46041 32.3211 3.39825C32.031 3.3361 31.1816 3.06676 30.4357 2.79743C26.955 1.55434 24.7796 1.3886 11.1677 1.34716C4.72431 1.34716 -0.248082 1.34716 0.0834101 1.3886ZM20.1594 3.52256C20.3873 3.60543 21.1539 3.7919 21.8376 3.93692C23.0393 4.18554 24.0545 4.49631 25.3597 5.07642C27.1829 5.88442 27.9495 6.27806 27.9495 6.42309C27.9495 6.50596 28.1774 6.65099 28.4675 6.71314C28.7575 6.79602 28.9854 6.94104 28.9854 7.04463C28.9854 7.16894 29.1097 7.25181 29.2755 7.25181C29.4412 7.25181 29.607 7.31397 29.6484 7.39684C29.6898 7.50043 30.27 8.08054 30.9537 8.70208C31.6581 9.32362 32.2175 9.92444 32.2382 10.028C32.2589 10.1316 32.3418 10.2766 32.4454 10.3388C32.9219 10.691 34.7037 14.0266 35.3874 15.8498C35.926 17.3001 36.2783 20.2835 36.2575 23.2047C36.2368 27.2447 35.7603 29.7309 34.5586 32.2171C33.3984 34.6411 32.3418 35.8427 30.0835 37.3344C29.3583 37.811 28.7782 38.2668 28.7782 38.3703C28.7782 38.4532 28.5918 38.5361 28.3639 38.5361C28.136 38.5361 27.5973 38.7225 27.1622 38.9504C25.5876 39.7792 21.4232 40.2764 17.7975 40.0692C14.2754 39.862 12.4108 39.0333 11.5613 37.293C11.1055 36.3607 11.1055 36.2985 11.0019 21.1744C10.9605 12.825 10.9812 5.49078 11.0641 4.86924C11.2091 3.6883 11.4577 3.46041 12.9287 3.23251C13.8611 3.08748 19.6415 3.31538 20.1594 3.52256Z" fill="#D7291E"/>
</svg>
