<svg width="64" height="64" viewBox="0 0 64 64" fill="none" xmlns="http://www.w3.org/2000/svg">
<path d="M31.6667 0C14.1867 0 0 14.1867 0 31.6667C0 49.1467 14.1867 63.3333 31.6667 63.3333C49.1467 63.3333 63.3333 49.1467 63.3333 31.6667C63.3333 14.1867 49.1467 0 31.6667 0ZM46.36 21.5333C45.885 26.5367 43.8267 38.6967 42.7817 44.3017C42.3383 46.6767 41.4517 47.4683 40.6283 47.5633C38.7917 47.7217 37.3983 46.36 35.625 45.1883C32.8383 43.3517 31.255 42.2117 28.5633 40.4383C25.4283 38.38 27.455 37.24 29.26 35.4033C29.735 34.9283 37.8417 27.55 38 26.885C38.022 26.7843 38.0191 26.6797 37.9915 26.5804C37.9639 26.481 37.9125 26.3899 37.8417 26.315C37.6517 26.1567 37.3983 26.22 37.1767 26.2517C36.8917 26.315 32.4583 29.26 23.8133 35.0867C22.5467 35.9417 21.4067 36.385 20.3933 36.3533C19.2533 36.3217 17.1 35.72 15.485 35.1817C13.49 34.5483 11.9383 34.2 12.065 33.0917C12.1283 32.5217 12.92 31.9517 14.4083 31.35C23.655 27.3283 29.7983 24.6683 32.87 23.4017C41.6733 19.7283 43.4783 19.095 44.6817 19.095C44.935 19.095 45.5367 19.1583 45.9167 19.475C46.2333 19.7283 46.3283 20.0767 46.36 20.33C46.3283 20.52 46.3917 21.09 46.36 21.5333Z" fill="white"/>
</svg>
