<svg width="1468" height="157" viewBox="0 0 1468 157" fill="none" xmlns="http://www.w3.org/2000/svg">
<path d="M132.243 111.019V111.184C132.243 111.843 132.219 112.479 132.196 113.115V113.163C132.172 113.469 132.172 113.775 132.149 114.081C132.125 114.387 132.101 114.717 132.078 115.023C132.054 115.33 132.031 115.612 131.984 115.919C130.971 126.542 126.566 135.729 118.769 143.526C109.794 152.501 98.9583 156.976 86.2617 156.976H0V129.84H86.2617C91.4911 129.84 95.9431 128.003 99.6179 124.352C101.408 122.561 102.751 120.606 103.669 118.439C105.059 115.188 105.106 112.409 105.13 111.019C105.154 109.676 105.154 107.603 104.423 105.201C104.305 104.824 104.188 104.47 104.046 104.07C100.937 95.6369 94.2 91.8208 85.4843 91.4911C72.4108 91.0199 59.3137 91.5382 46.2402 91.2084C20.3287 90.5724 0.8009 71.8219 0.0471118 47.2531V47.1824C0.0471118 46.994 0.0471118 46.8292 0.0471118 46.6407C0.0471118 46.4287 0.0471118 46.2167 0.0471118 45.9811C0.0471118 45.1567 0.0706677 44.3322 0.0942236 43.5077C0.117779 42.9659 0.141335 42.4242 0.188447 41.9059C0.188447 41.8353 0.188447 41.7646 0.212003 41.694C0.235559 41.3171 0.282671 40.9637 0.329782 40.6103C0.376894 40.2099 0.424006 39.833 0.471118 39.4561C0.51823 39.0557 0.565341 38.6552 0.636009 38.2783C0.706677 37.7836 0.8009 37.289 0.895124 36.8179C1.03646 36.0876 1.20135 35.3574 1.36624 34.6272C1.46047 34.2503 1.55469 33.8498 1.67247 33.4729C1.71958 33.2609 1.79025 33.0489 1.83736 32.8605C1.97869 32.4129 2.12003 31.9418 2.26137 31.5178C2.35559 31.2822 2.42626 31.0231 2.52048 30.7876C2.66182 30.3871 2.80315 29.9867 2.94449 29.6098C2.9916 29.4684 3.06227 29.3271 3.10938 29.1858C3.29782 28.6676 3.50983 28.1728 3.74539 27.6782C3.95739 27.1835 4.19295 26.6888 4.42851 26.1941C4.89963 25.2283 5.3943 24.2626 5.93608 23.3439C5.79475 23.5795 5.65341 23.815 5.53563 24.0505C7.585 20.2816 10.2468 16.7247 13.5211 13.4504C22.4959 4.4756 33.3316 0 46.0282 0H123.103V27.1364H45.9575C40.8695 27.1364 36.4645 29.0208 32.7427 32.7427C28.9973 36.4645 27.1364 40.9166 27.1364 46.0753C27.1364 51.2341 29.0209 55.639 32.7427 59.3137C35.7343 62.2346 38.7966 63.436 39.5032 63.6951C42.165 64.6609 44.4971 64.8258 45.9575 64.8023C59.3844 64.8023 72.8348 64.8023 86.2617 64.8023C98.9583 64.8023 109.818 69.325 118.769 78.3705C127.461 87.1333 131.937 97.6156 132.219 109.818C132.243 110.218 132.243 110.618 132.243 111.019Z" fill="#E8441E"/>
<path d="M866.33 111.019V111.184C866.33 111.843 866.306 112.479 866.283 113.115V113.163C866.259 113.469 866.259 113.775 866.235 114.081C866.212 114.387 866.188 114.717 866.165 115.023C866.141 115.33 866.118 115.612 866.071 115.919C865.058 126.542 860.653 135.729 852.856 143.526C843.881 152.501 833.045 156.976 820.349 156.976H734.087V129.84H820.349C825.578 129.84 830.03 128.003 833.705 124.352C835.495 122.561 836.838 120.606 837.756 118.439C839.146 115.188 839.193 112.409 839.217 111.019C839.24 109.676 839.24 107.603 838.51 105.201C838.392 104.824 838.275 104.47 838.133 104.07C835.024 95.6369 828.287 91.8208 819.571 91.4911C806.498 91.02 793.401 91.5382 780.327 91.2084C754.416 90.5724 734.888 71.8219 734.134 47.2531V47.1824C734.134 46.994 734.134 46.8292 734.134 46.6407C734.134 46.4287 734.134 46.2167 734.134 45.9811C734.134 45.1567 734.158 44.3322 734.181 43.5077C734.205 42.9659 734.228 42.4242 734.275 41.9059C734.275 41.8353 734.275 41.7646 734.299 41.694C734.323 41.3171 734.37 40.9637 734.417 40.6103C734.464 40.2099 734.511 39.833 734.558 39.4561C734.605 39.0557 734.652 38.6552 734.723 38.2783C734.794 37.7836 734.888 37.289 734.982 36.8179C735.123 36.0876 735.288 35.3574 735.453 34.6272C735.547 34.2503 735.642 33.8498 735.759 33.4729C735.807 33.2609 735.877 33.0489 735.924 32.8605C736.066 32.4129 736.207 31.9418 736.348 31.5178C736.443 31.2822 736.513 31.0231 736.607 30.7876C736.749 30.3871 736.89 29.9867 737.031 29.6098C737.079 29.4684 737.149 29.3271 737.196 29.1858C737.385 28.6676 737.597 28.1728 737.832 27.6782C738.044 27.1835 738.28 26.6888 738.515 26.1941C738.987 25.2283 739.481 24.2626 740.023 23.3439C739.882 23.5795 739.74 23.815 739.623 24.0505C741.672 20.2816 744.334 16.7247 747.608 13.4504C756.583 4.4756 767.419 0 780.115 0H857.19V27.1364H780.115C775.027 27.1364 770.622 29.0208 766.9 32.7427C763.155 36.4645 761.294 40.9166 761.294 46.0753C761.294 51.2341 763.178 55.639 766.9 59.3137C769.892 62.2346 772.954 63.436 773.661 63.6951C776.323 64.6609 778.655 64.8258 780.115 64.8023C793.542 64.8023 806.992 64.8023 820.419 64.8023C833.116 64.8023 843.975 69.325 852.926 78.3705C861.619 87.1333 866.094 97.6156 866.377 109.818C866.306 110.218 866.33 110.618 866.33 111.019Z" fill="#E8441E"/>
<path d="M270.787 0L216.514 78.4882L270.787 156.976H237.809L200.143 102.492L183.536 78.4882L237.809 0H270.787Z" fill="#E8441E"/>
<path d="M347.799 156.999H320.663V0.0229492H347.799V156.999Z" fill="#E8441E"/>
<path d="M429.33 110.618H402.193V0.0229492H429.33V110.618Z" fill="#E8441E"/>
<path d="M429.331 129.863H512.766V157H402.194C411.24 147.954 420.285 138.909 429.331 129.863Z" fill="#E8441E"/>
<path d="M592.754 110.618H565.617V0.0229492H592.754V110.618Z" fill="#E8441E"/>
<path d="M592.754 129.863H676.189V157H565.617C574.663 147.954 583.708 138.909 592.754 129.863Z" fill="#E8441E"/>
<path d="M1139.01 156.999H1111.87V0.0229492H1139.01V156.999Z" fill="#E8441E"/>
<path d="M1058.81 78.5118C1058.81 87.0391 1057.49 95.2836 1054.88 103.293C1052.26 111.278 1048.52 118.51 1043.66 124.917C1038.81 131.348 1033.16 137.001 1026.73 141.854C1020.3 146.706 1013.09 150.452 1005.08 153.066C997.093 155.681 988.825 157 980.298 157H920.019V64.7787H947.155V129.864H980.298C985.834 129.864 991.204 129.016 996.434 127.272C1001.66 125.553 1006.37 123.103 1010.57 119.876C1014.76 116.672 1018.46 112.951 1021.66 108.758C1024.87 104.588 1027.34 99.8535 1029.06 94.624C1030.78 89.3946 1031.65 84.0003 1031.65 78.4883C1031.65 64.284 1026.63 52.1763 1016.62 42.165C1006.61 32.1538 994.502 27.1364 980.298 27.1364H947.155C938.109 18.091 929.064 9.04546 920.019 0H980.298C994.502 0 1007.62 3.50985 1019.66 10.5531C1031.7 17.5727 1041.21 27.1128 1048.26 39.1499C1055.3 51.1869 1058.81 64.2841 1058.81 78.5118Z" fill="#E8441E"/>
<path d="M1303.62 0.0229492V27.1593H1220.21C1211.17 18.1138 1202.12 9.06841 1193.08 0.0229492H1303.62Z" fill="#E8441E"/>
<path d="M1303.62 64.8247V91.9611H1220.19V156.999H1193.05V64.8247H1303.62Z" fill="#E8441E"/>
<path d="M1467.23 0.0229492V27.1593H1383.82C1374.78 18.1138 1365.73 9.06841 1356.69 0.0229492H1467.23Z" fill="#E8441E"/>
<path d="M1467.24 64.8247V91.9611H1383.8V156.999H1356.66V64.8247H1467.24Z" fill="#E8441E"/>
</svg>
