<svg width="24" height="24" viewBox="0 0 24 24" fill="none" xmlns="http://www.w3.org/2000/svg">
<path d="M12.1002 21C11.8169 21 11.5795 20.904 11.3882 20.712C11.1969 20.52 11.1009 20.2827 11.1002 20C11.1002 19.8833 11.1252 19.7623 11.1752 19.637C11.2252 19.5117 11.3002 19.3993 11.4002 19.3L15.6752 15.025C15.7752 14.925 15.8252 14.804 15.8252 14.662C15.8252 14.52 15.7752 14.3993 15.6752 14.3C15.5752 14.2007 15.4542 14.1547 15.3122 14.162C15.1702 14.1693 15.0495 14.2237 14.9502 14.325L10.7002 18.575C10.6002 18.675 10.4919 18.75 10.3752 18.8C10.2585 18.85 10.1335 18.875 10.0002 18.875C9.71686 18.875 9.47953 18.779 9.2882 18.587C9.09686 18.395 9.00086 18.158 9.0002 17.876C9.0002 17.7093 9.0252 17.5717 9.0752 17.463C9.1252 17.3543 9.19186 17.2587 9.2752 17.176L13.5502 12.9C13.6502 12.8 13.7002 12.6833 13.7002 12.55C13.7002 12.4167 13.6502 12.3 13.5502 12.2C13.4502 12.1 13.3335 12.05 13.2002 12.05C13.0669 12.05 12.9502 12.1 12.8502 12.2L8.5752 16.45C8.4752 16.55 8.36686 16.625 8.2502 16.675C8.13353 16.725 8.0002 16.75 7.85019 16.75C7.58353 16.75 7.35019 16.65 7.1502 16.45C6.9502 16.25 6.85019 16.0167 6.85019 15.75C6.85019 15.6167 6.8752 15.4917 6.9252 15.375C6.9752 15.2583 7.0502 15.15 7.1502 15.05L11.4002 10.8C11.5002 10.7 11.5502 10.579 11.5502 10.437C11.5502 10.295 11.5002 10.1743 11.4002 10.075C11.3002 9.97565 11.1835 9.92565 11.0502 9.92499C10.9169 9.92432 10.8002 9.97432 10.7002 10.075L6.4502 14.35C6.36686 14.4333 6.26686 14.5 6.1502 14.55C6.03353 14.6 5.89186 14.625 5.7252 14.625C5.44186 14.625 5.20453 14.529 5.0132 14.337C4.82186 14.145 4.72586 13.9077 4.7252 13.625C4.7252 13.4917 4.7502 13.3667 4.8002 13.25C4.8502 13.1333 4.9252 13.025 5.0252 12.925L9.9252 8.02499C10.1085 7.84165 10.3379 7.75832 10.6132 7.77499C10.8885 7.79166 11.1175 7.89165 11.3002 8.07499L14.3502 11.125C14.5335 11.3083 14.7502 11.4543 15.0002 11.563C15.2502 11.6717 15.5002 11.7257 15.7502 11.725C16.2835 11.725 16.7502 11.5377 17.1502 11.163C17.5502 10.7883 17.7502 10.309 17.7502 9.72499C17.7502 9.49165 17.7085 9.24999 17.6252 8.99999C17.5419 8.74999 17.3919 8.51665 17.1752 8.29999L13.7502 4.87499C13.5669 4.69165 13.4459 4.49165 13.3872 4.27499C13.3285 4.05832 13.3579 3.84999 13.4752 3.64999C13.6252 3.39999 13.8169 3.21665 14.0502 3.09999C14.2835 2.98332 14.5419 2.92499 14.8252 2.92499C15.1752 2.92499 15.5335 3.00832 15.9002 3.17499C16.2669 3.34165 16.6002 3.57499 16.9002 3.87499L21.1252 8.12499C21.4252 8.42499 21.6462 8.75832 21.7882 9.12499C21.9302 9.49165 22.0009 9.91665 22.0002 10.4C22.0002 10.7333 21.9252 11.071 21.7752 11.413C21.6252 11.755 21.4085 12.0673 21.1252 12.35L12.8002 20.7C12.6669 20.8333 12.5502 20.9167 12.4502 20.95C12.3502 20.9833 12.2335 21 12.1002 21ZM2.9002 12.125C2.58353 11.8917 2.3462 11.6127 2.1882 11.288C2.0302 10.9633 1.95086 10.6173 1.9502 10.25C1.9502 9.86665 2.02953 9.49165 2.1882 9.12499C2.34686 8.75832 2.57586 8.42499 2.8752 8.12499L7.10019 3.87499C7.38353 3.59165 7.6962 3.37499 8.0382 3.22499C8.3802 3.07499 8.74253 2.99999 9.1252 2.99999C9.54186 2.99999 9.9462 3.07499 10.3382 3.22499C10.7302 3.37499 11.0675 3.59165 11.3502 3.87499L16.4752 8.99999C16.5585 9.08332 16.6295 9.18765 16.6882 9.31299C16.7469 9.43832 16.7759 9.56732 16.7752 9.69999C16.7752 9.98332 16.6795 10.221 16.4882 10.413C16.2969 10.605 16.0592 10.7007 15.7752 10.7C15.6419 10.7 15.5129 10.671 15.3882 10.613C15.2635 10.555 15.1592 10.484 15.0752 10.4L12.0002 7.34999C11.6169 6.96665 11.1462 6.77499 10.5882 6.77499C10.0302 6.77499 9.5592 6.96665 9.1752 7.34999L4.4752 12.05C4.25853 12.2667 4.00453 12.3793 3.7132 12.388C3.42186 12.3967 3.15086 12.309 2.9002 12.125Z" fill="white"/>
</svg>
