<svg width="24" height="24" viewBox="0 0 24 24" fill="none" xmlns="http://www.w3.org/2000/svg">
<g clip-path="url(#clip0_1626_309)">
<path d="M15.503 13.502H9.50195V15.502H15.503V13.502Z" fill="#F1D927"/>
<path d="M22.505 10.501V8.501H21.505V6.501H20.505V5.501H19.505V4.5H15.503V5.5H9.502V4.5H5.5V5.5H4.5V6.5H3.5V8.5H2.5V10.501H1.5V18.503H2.5V19.503H5.5V18.503H6.501V17.503H7.501V16.503H8.501V13.502H9.501V12.502H15.503V13.502H16.503V16.502H17.503V17.503H18.503V18.503H19.504V19.503H22.504V18.503H23.505V10.501H22.505ZM5.501 8.501V7.501H6.501V6.501H7.501V7.501H8.501V8.501H9.501V9.501H8.501V10.501H7.501V11.501H6.501V10.501H5.501V9.501H4.501V8.501H5.501ZM13.503 9.501H12.503V10.501H11.503V9.501H10.502V8.501H11.502V7.501H12.502V8.501H13.502L13.503 9.501ZM20.504 10.501H18.504V12.501H16.504V10.501H14.503V8.501H16.503V6.501H18.503V8.501H20.504V10.501Z" fill="#F1D927"/>
<path d="M18.5039 8.50098H16.5039V10.501H18.5039V8.50098Z" fill="#F1D927"/>
</g>
<defs>
<clipPath id="clip0_1626_309">
<rect width="24" height="24" fill="white"/>
</clipPath>
</defs>
</svg>
