<svg width="20" height="20" viewBox="0 0 20 20" fill="none" xmlns="http://www.w3.org/2000/svg">
<path d="M0.75 13.75V5.75C0.75 4.42392 1.27678 3.15215 2.21447 2.21447C3.15215 1.27678 4.42392 0.75 5.75 0.75H13.75C15.0761 0.75 16.3479 1.27678 17.2855 2.21447C18.2232 3.15215 18.75 4.42392 18.75 5.75V13.75C18.75 15.0761 18.2232 16.3479 17.2855 17.2855C16.3479 18.2232 15.0761 18.75 13.75 18.75H5.75C4.42392 18.75 3.15215 18.2232 2.21447 17.2855C1.27678 16.3479 0.75 15.0761 0.75 13.75Z" stroke="white" stroke-width="1.5"/>
<path d="M14.25 12.25C14.25 12.25 12.75 14.25 9.75 14.25C6.75 14.25 5.25 12.25 5.25 12.25" stroke="white" stroke-width="1.5" stroke-linecap="round" stroke-linejoin="round"/>
<path d="M6.25 7.75C6.11739 7.75 5.99021 7.69732 5.89645 7.60355C5.80268 7.50979 5.75 7.38261 5.75 7.25C5.75 7.11739 5.80268 6.99021 5.89645 6.89645C5.99021 6.80268 6.11739 6.75 6.25 6.75C6.38261 6.75 6.50979 6.80268 6.60355 6.89645C6.69732 6.99021 6.75 7.11739 6.75 7.25C6.75 7.38261 6.69732 7.50979 6.60355 7.60355C6.50979 7.69732 6.38261 7.75 6.25 7.75ZM13.25 7.75C13.1174 7.75 12.9902 7.69732 12.8964 7.60355C12.8027 7.50979 12.75 7.38261 12.75 7.25C12.75 7.11739 12.8027 6.99021 12.8964 6.89645C12.9902 6.80268 13.1174 6.75 13.25 6.75C13.3826 6.75 13.5098 6.80268 13.6036 6.89645C13.6973 6.99021 13.75 7.11739 13.75 7.25C13.75 7.38261 13.6973 7.50979 13.6036 7.60355C13.5098 7.69732 13.3826 7.75 13.25 7.75Z" fill="white" stroke="white" stroke-width="1.5" stroke-linecap="round" stroke-linejoin="round"/>
</svg>
