<svg width="1688" height="974" viewBox="0 0 1688 974" fill="none" xmlns="http://www.w3.org/2000/svg">
<g filter="url(#filter0_f_2232_34)">
<path d="M151.6 425.696C143.64 296.462 327.399 608.667 371.186 177.284C500.42 169.323 284.574 443.136 619.598 396.87C627.558 526.104 623.434 705.718 494.199 713.678C364.965 721.639 561.383 526.08 151.6 425.696Z" fill="url(#paint0_linear_2232_34)" fill-opacity="0.6"/>
</g>
<g filter="url(#filter1_f_2232_34)">
<path d="M1533.36 458.015C1568.69 622.599 1271.85 256.937 1299.32 819.981C1134.73 855.304 1359.04 461.413 937.35 585.932C902.027 421.347 872.457 189.652 1037.04 154.329C1201.63 119.005 987.1 408.53 1533.36 458.015Z" fill="url(#paint1_linear_2232_34)" fill-opacity="0.7"/>
</g>
<defs>
<filter id="filter0_f_2232_34" x="-0.000396729" y="25.7633" width="773.413" height="839.501" filterUnits="userSpaceOnUse" color-interpolation-filters="sRGB">
<feFlood flood-opacity="0" result="BackgroundImageFix"/>
<feBlend mode="normal" in="SourceGraphic" in2="BackgroundImageFix" result="shape"/>
<feGaussianBlur stdDeviation="75.675" result="effect1_foregroundBlur_2232_34"/>
</filter>
<filter id="filter1_f_2232_34" x="758.429" y="9.15527e-05" width="929.21" height="973.582" filterUnits="userSpaceOnUse" color-interpolation-filters="sRGB">
<feFlood flood-opacity="0" result="BackgroundImageFix"/>
<feBlend mode="normal" in="SourceGraphic" in2="BackgroundImageFix" result="shape"/>
<feGaussianBlur stdDeviation="75.675" result="effect1_foregroundBlur_2232_34"/>
</filter>
<linearGradient id="paint0_linear_2232_34" x1="400.012" y1="645.282" x2="371.186" y2="177.284" gradientUnits="userSpaceOnUse">
<stop stop-color="#9C0808"/>
<stop offset="0.8625" stop-color="#4347EE"/>
</linearGradient>
<linearGradient id="paint1_linear_2232_34" x1="1171.4" y1="223.966" x2="1299.32" y2="819.981" gradientUnits="userSpaceOnUse">
<stop stop-color="#9C0808"/>
<stop offset="0.8625" stop-color="#4347EE"/>
</linearGradient>
</defs>
</svg>
