<svg width="32" height="24" viewBox="0 0 32 24" fill="none" xmlns="http://www.w3.org/2000/svg">
<path d="M20.3636 0C21.9067 0 23.3866 0.632141 24.4777 1.75736C25.5688 2.88258 26.1818 4.4087 26.1818 6C26.1818 7.5913 25.5688 9.11742 24.4777 10.2426C23.3866 11.3679 21.9067 12 20.3636 12C18.8206 12 17.3407 11.3679 16.2496 10.2426C15.1584 9.11742 14.5455 7.5913 14.5455 6C14.5455 4.4087 15.1584 2.88258 16.2496 1.75736C17.3407 0.632141 18.8206 0 20.3636 0ZM20.3636 2.85C19.5535 2.85 18.7766 3.18187 18.2037 3.77261C17.6309 4.36335 17.3091 5.16457 17.3091 6C17.3091 6.83543 17.6309 7.63665 18.2037 8.22739C18.7766 8.81813 19.5535 9.15 20.3636 9.15C21.1738 9.15 21.9507 8.81813 22.5235 8.22739C23.0964 7.63665 23.4182 6.83543 23.4182 6C23.4182 5.16457 23.0964 4.36335 22.5235 3.77261C21.9507 3.18187 21.1738 2.85 20.3636 2.85ZM20.3636 13.5C24.2473 13.5 32 15.495 32 19.5V24H8.72727V19.5C8.72727 15.495 16.48 13.5 20.3636 13.5ZM20.3636 16.35C16 16.35 11.4909 18.54 11.4909 19.5V21.15H29.2364V19.5C29.2364 18.54 24.6836 16.35 20.3636 16.35ZM5.81818 13.92L2.18182 16.155L3.17091 11.94L0 9.12L4.17455 8.745L5.81818 4.785L7.43273 8.745L11.6364 9.12L8.43636 11.94L9.38182 16.155L5.81818 13.92Z" fill="#FF4350"/>
</svg>
